<?xml version="1.0" encoding="utf-8"?>
<!-- Generator: Adobe Illustrator 16.0.0, SVG Export Plug-In . SVG Version: 6.00 Build 0)  -->
<!DOCTYPE svg PUBLIC "-//W3C//DTD SVG 1.1//EN" "http://www.w3.org/Graphics/SVG/1.1/DTD/svg11.dtd">
<svg version="1.1" id="Layer_1" xmlns="http://www.w3.org/2000/svg" xmlns:xlink="http://www.w3.org/1999/xlink" x="0px" y="0px"
	 width="479.334px" height="62.333px" viewBox="0 0 479.334 62.333" enable-background="new 0 0 479.334 62.333"
	 xml:space="preserve">
<g>
	<g>
		<path fill-rule="evenodd" clip-rule="evenodd" fill="#CCCCCC" d="M220.155,11.559c0,12.991,0,25.92,0,38.85c2.86,0,5.682,0,8.56,0
			c0-4.141,0-8.252,0-12.398c2.106,0,4.156,0.008,6.207-0.008c0.336-0.004,0.525,0.104,0.708,0.379
			c2.581,3.874,5.177,7.738,7.757,11.611c0.21,0.314,0.424,0.459,0.828,0.456c2.984-0.021,5.969-0.011,8.955-0.011
			c0.163,0,0.326,0,0.594,0c-3.17-4.665-6.281-9.241-9.408-13.842c0.24-0.098,0.416-0.167,0.59-0.24
			c3.209-1.336,5.559-3.549,6.807-6.826c0.797-2.094,0.959-4.283,0.774-6.512c-0.349-4.19-2.284-7.375-5.95-9.467
			c-2.7-1.541-5.666-1.979-8.715-1.986c-5.693-0.018-11.387-0.006-17.08-0.006C220.578,11.559,220.377,11.559,220.155,11.559z
			 M45.208,17.218c-0.056-0.085-0.077-0.136-0.113-0.17c-1.878-1.757-3.937-3.264-6.333-4.224
			c-4.431-1.774-9.016-2.068-13.655-1.074c-4.702,1.007-8.616,3.378-11.49,7.279c-3.534,4.795-4.637,10.21-3.646,16.023
			c1.208,7.084,5.162,12.096,11.803,14.891c3.464,1.457,7.105,1.659,10.816,1.285c4.478-0.451,8.299-2.271,11.566-5.321
			c0.487-0.455,0.982-0.901,1.511-1.386c-1.945-1.909-3.776-3.705-5.625-5.519c-0.467,0.384-0.955,0.791-1.451,1.188
			c-2.347,1.883-4.898,3.198-8.01,3.31c-4.079,0.146-7.335-1.291-9.702-4.642c-2.071-2.931-2.603-6.218-2.135-9.701
			c0.479-3.566,2.207-6.449,5.25-8.341c3.872-2.408,7.91-2.182,11.85-0.092c1.405,0.746,2.669,1.757,4.049,2.683
			C41.631,21.383,43.422,19.298,45.208,17.218z M440.472,9.985c0,13.492,0,26.954,0,40.42c2.846,0,5.649,0,8.492,0
			c0-0.233,0-0.438,0-0.642c0-5.246-0.008-10.491,0.01-15.737c0.002-0.72,0.063-1.452,0.207-2.155
			c0.401-1.964,1.492-3.353,3.502-3.865c3.117-0.797,5.707,0.748,6.389,3.832c0.163,0.734,0.234,1.502,0.238,2.255
			c0.02,5.229,0.01,10.457,0.01,15.687c0,0.202,0,0.404,0,0.631c2.836,0,5.621,0,8.468,0c0-0.225,0-0.428,0-0.63
			c0-6.161,0.015-12.321-0.013-18.481c-0.006-1.079-0.1-2.174-0.305-3.232c-0.457-2.373-1.561-4.401-3.475-5.943
			c-3.008-2.42-9.467-3.066-13.191,0.732c-0.607,0.619-1.197,1.254-1.857,1.943c0-4.984,0-9.893,0-14.813
			C446.097,9.985,443.292,9.985,440.472,9.985z M176.111,38.862c0.398-3.182-0.053-6.871-1.211-9.765
			c-1.13-2.822-2.791-5.214-5.508-6.755c-2.436-1.38-5.049-1.951-7.832-1.89c-5.313,0.116-9.403,2.428-12.225,6.895
			c-2.1,3.326-2.604,7.028-2.172,10.885c0.539,4.809,2.871,8.534,7.016,10.992c4.31,2.555,8.956,2.737,13.688,1.393
			c2.817-0.799,5.096-2.458,6.975-4.753c-1.631-1.461-3.241-2.904-4.871-4.365c-0.209,0.184-0.379,0.328-0.542,0.478
			c-2.073,1.904-4.493,2.775-7.324,2.631c-3.211-0.164-5.819-2.272-6.544-5.421c-0.021-0.091-0.002-0.189-0.002-0.325
			C162.422,38.862,169.251,38.862,176.111,38.862z M286.741,38.596c0.525-3.361-0.227-7.902-1.761-11.019
			c-1.067-2.167-2.503-3.989-4.584-5.272c-3.052-1.883-6.392-2.463-9.883-1.99c-5.797,0.783-9.721,4.035-11.834,9.453
			c-1.033,2.652-1.191,5.432-0.877,8.244c0.316,2.826,1.299,5.381,3.111,7.588c3.428,4.172,7.964,5.727,13.216,5.515
			c3.377-0.138,6.482-1.103,9.121-3.286c0.799-0.662,1.512-1.428,2.29-2.17c-1.704-1.529-3.306-2.962-4.886-4.379
			c-0.084,0.031-0.123,0.035-0.148,0.057c-0.131,0.11-0.264,0.223-0.389,0.34c-2.107,1.957-4.58,2.879-7.463,2.66
			c-2.386-0.181-4.3-1.174-5.562-3.258c-0.451-0.746-0.801-1.541-0.932-2.482C273.065,38.596,279.907,38.596,286.741,38.596z
			 M347.976,38.605c0.366-3.668-0.098-7.145-1.536-10.475c-1.294-2.994-3.337-5.273-6.349-6.639
			c-2.129-0.964-4.357-1.346-6.684-1.298c-5.314,0.108-9.404,2.423-12.227,6.89c-2.104,3.325-2.607,7.025-2.177,10.883
			c0.544,4.873,2.962,8.567,7.136,11.092c2.707,1.637,5.717,2.156,8.838,2.071c3.502-0.095,6.736-1.034,9.48-3.308
			c0.797-0.66,1.508-1.426,2.283-2.166c-1.709-1.53-3.309-2.964-4.93-4.416c-0.205,0.18-0.374,0.324-0.537,0.475
			c-2.059,1.885-4.457,2.775-7.271,2.634c-3.275-0.165-5.854-2.231-6.601-5.415c-0.021-0.091-0.003-0.191-0.003-0.328
			C334.259,38.605,341.087,38.605,347.976,38.605z M51.746,22.999c0.716,2.204,1.417,4.358,2.109,6.489
			c1.115-0.333,2.157-0.697,3.227-0.95c1.069-0.253,2.158-0.458,3.251-0.57c1.58-0.163,3.162-0.179,4.706,0.343
			c2.735,0.924,3.578,3.468,3.27,5.38c-0.166-0.05-0.329-0.101-0.492-0.148c-3.787-1.12-7.613-1.426-11.47-0.43
			c-2.33,0.601-4.366,1.723-5.748,3.778c-1.13,1.681-1.424,3.585-1.394,5.573c0.051,3.398,1.556,5.898,4.558,7.486
			c2.26,1.195,4.693,1.424,7.188,1.2c2.137-0.191,4.104-0.877,5.827-2.182c0.529-0.4,1.012-0.859,1.581-1.346
			c0,1.052,0,2.041,0,3.042c2.751,0,5.448,0,8.181,0c0-0.236,0-0.441,0-0.645c0-5.297,0.006-10.594-0.005-15.892
			c-0.002-1.034-0.017-2.072-0.119-3.099c-0.203-2.046-0.752-3.994-1.933-5.712c-1.895-2.76-4.69-3.96-7.867-4.427
			c-2.924-0.429-5.849-0.295-8.75,0.22C55.776,21.479,53.755,22.099,51.746,22.999z M371.28,33.438
			c-0.182-0.055-0.357-0.107-0.535-0.159c-3.787-1.116-7.613-1.422-11.47-0.424c-2.329,0.603-4.364,1.729-5.743,3.786
			c-1.115,1.666-1.412,3.552-1.387,5.523c0.043,3.463,1.583,5.985,4.66,7.576c2.106,1.089,4.367,1.336,6.686,1.186
			c2.619-0.17,4.975-1.045,6.961-2.809c0.263-0.234,0.512-0.482,0.855-0.809c0,1.111,0,2.101,0,3.09c2.75,0,5.447,0,8.172,0
			c0-0.207,0-0.377,0-0.548c0-5.694,0.025-11.39-0.02-17.083c-0.011-1.298-0.175-2.613-0.434-3.889
			c-0.419-2.066-1.348-3.899-2.918-5.362c-2.021-1.886-4.51-2.696-7.178-2.972c-4.096-0.424-8.119-0.019-12.028,1.326
			c-0.741,0.256-1.466,0.557-2.224,0.847c0.727,2.235,1.426,4.388,2.129,6.55c0.557-0.191,1.041-0.369,1.534-0.523
			c2.753-0.865,5.55-1.396,8.447-0.99C369.786,28.172,371.614,30.489,371.28,33.438z M110.584,50.676c0-0.25,0-0.454,0-0.657
			c0-6.16,0.014-12.32-0.013-18.48c-0.005-1.062-0.101-2.138-0.299-3.18c-0.459-2.413-1.542-4.514-3.544-6.006
			c-2.723-2.03-5.815-2.292-9.017-1.583c-2.329,0.515-4.01,2.059-5.507,3.822c-0.123,0.145-0.246,0.29-0.369,0.435
			c-0.035-0.018-0.069-0.035-0.104-0.053c0-1.338,0-2.676,0-4.002c-2.852,0-5.655,0-8.475,0c0,9.918,0,19.796,0,29.685
			c2.849,0,5.665,0,8.505,0c0-0.245,0-0.451,0-0.656c0-5.211-0.008-10.422,0.009-15.633c0.002-0.737,0.062-1.486,0.204-2.208
			c0.392-1.989,1.495-3.39,3.526-3.901c3.104-0.781,5.665,0.747,6.36,3.808c0.167,0.733,0.242,1.502,0.246,2.255
			c0.021,5.246,0.011,10.491,0.011,15.736c0,0.201,0,0.401,0,0.619C104.955,50.676,107.729,50.676,110.584,50.676z M290.218,46.549
			c0.16,0.13,0.299,0.256,0.449,0.365c4.791,3.492,10.129,4.678,15.947,3.701c1.881-0.316,3.578-1.125,5.045-2.363
			c1.898-1.604,2.613-3.752,2.75-6.138c0.166-2.894-0.809-5.294-3.25-6.962c-0.879-0.6-1.807-1.166-2.787-1.564
			c-1.879-0.767-3.809-1.408-5.721-2.089c-0.928-0.331-1.838-0.677-2.594-1.35c-1.01-0.899-0.868-2.314,0.375-2.864
			c0.584-0.26,1.252-0.404,1.893-0.439c1.377-0.08,2.711,0.244,3.978,0.76c1.446,0.59,2.856,1.269,4.321,1.926
			c1.04-1.883,2.111-3.822,3.191-5.777c-0.07-0.055-0.109-0.09-0.152-0.117c-4.246-2.686-8.836-3.895-13.848-3.089
			c-2.067,0.333-3.902,1.244-5.441,2.685c-2.216,2.072-2.787,4.709-2.544,7.604c0.215,2.558,1.479,4.502,3.652,5.802
			c1.101,0.658,2.286,1.211,3.491,1.648c1.76,0.639,3.586,1.093,5.357,1.704c0.666,0.229,1.319,0.603,1.869,1.046
			c0.887,0.714,0.848,2.01-0.078,2.672c-0.484,0.346-1.092,0.613-1.678,0.71c-2.064,0.345-4.073-0.048-5.957-0.869
			c-1.601-0.698-3.111-1.604-4.725-2.45C292.638,42.83,291.438,44.675,290.218,46.549z M143.447,25.397
			c-1.418-1.53-3.003-2.759-4.871-3.596c-3.168-1.421-6.495-1.659-9.873-1.122c-3.961,0.63-7.225,2.546-9.683,5.73
			c-2.641,3.422-3.522,7.335-3.034,11.589c0.434,3.786,2.056,6.985,4.894,9.522c2.661,2.378,5.812,3.647,9.38,3.835
			c3.097,0.164,6.088-0.241,8.852-1.761c1.705-0.937,3.166-2.178,4.551-3.685c-0.865-0.837-1.713-1.646-2.549-2.468
			c-0.832-0.818-1.652-1.651-2.486-2.485c-0.291,0.246-0.547,0.476-0.816,0.689c-1.501,1.191-3.079,2.164-5.064,2.386
			c-3.439,0.384-6.534-1.362-7.85-4.555c-0.717-1.74-0.829-3.56-0.511-5.384c0.428-2.453,1.661-4.466,3.899-5.612
			c2.692-1.38,5.349-1.014,7.801,0.717c0.752,0.533,1.422,1.185,2.149,1.799C139.967,29.139,141.701,27.273,143.447,25.397z
			 M435.601,45.676c-1.713-1.649-3.396-3.271-5.092-4.904c-0.215,0.181-0.473,0.41-0.741,0.625c-1.54,1.231-3.169,2.259-5.222,2.387
			c-2.209,0.137-4.182-0.362-5.863-1.9c-3.027-2.77-3.154-8.215-1.093-11.207c1.542-2.236,3.61-3.378,6.357-3.232
			c2.03,0.109,3.7,0.99,5.165,2.338c0.352,0.32,0.697,0.648,1.061,0.988c1.763-1.895,3.496-3.758,5.238-5.631
			c-1.428-1.535-3.015-2.757-4.879-3.602c-2.913-1.318-5.982-1.568-9.109-1.227c-3.818,0.418-7.069,2.056-9.646,4.898
			c-3.229,3.564-4.402,7.816-3.814,12.54c0.681,5.456,3.531,9.433,8.457,11.878c2.678,1.33,5.539,1.635,8.502,1.444
			C429.229,50.795,432.679,48.883,435.601,45.676z M182.061,20.952c0,9.934,0,19.822,0,29.711c2.847,0,5.65,0,8.492,0
			c0-0.218,0-0.405,0-0.591c0-3.468-0.035-6.937,0.018-10.404c0.02-1.25,0.154-2.516,0.406-3.74c0.793-3.87,3.33-6.139,7.266-6.598
			c0.591-0.068,1.188-0.084,1.785-0.125c0-2.935,0-5.827,0-8.773c-4.641-0.216-7.617,2.062-9.496,6.11c0-1.857,0-3.714,0-5.59
			C187.697,20.952,184.906,20.952,182.061,20.952z M394.702,50.406c0-0.224,0-0.411,0-0.598c0-3.348-0.026-6.695,0.014-10.043
			c0.014-1.201,0.1-2.414,0.303-3.598c0.702-4.086,3.287-6.725,7.379-7.098c0.592-0.055,1.186-0.083,1.777-0.123
			c0-2.939,0-5.832,0-8.773c-4.641-0.216-7.613,2.063-9.398,6.193c-0.033-0.029-0.066-0.058-0.1-0.086c0-1.857,0-3.716,0-5.574
			c-2.846,0-5.65,0-8.482,0c0,9.914,0,19.793,0,29.699C389.021,50.406,391.825,50.406,394.702,50.406z"/>
		<path fill-rule="evenodd" clip-rule="evenodd" fill="#CCCCCC" d="M220.155,11.559c0.222,0,0.423,0,0.626,0
			c5.693,0,11.387-0.012,17.08,0.006c3.049,0.008,6.015,0.445,8.715,1.986c3.666,2.092,5.602,5.276,5.95,9.467
			c0.185,2.229,0.022,4.418-0.774,6.512c-1.248,3.277-3.598,5.49-6.807,6.826c-0.174,0.073-0.35,0.143-0.59,0.24
			c3.127,4.601,6.238,9.177,9.408,13.842c-0.268,0-0.431,0-0.594,0c-2.986,0-5.971-0.011-8.955,0.011
			c-0.404,0.003-0.618-0.142-0.828-0.456c-2.58-3.873-5.176-7.737-7.757-11.611c-0.183-0.275-0.372-0.383-0.708-0.379
			c-2.051,0.016-4.101,0.008-6.207,0.008c0,4.146,0,8.258,0,12.398c-2.878,0-5.699,0-8.56,0
			C220.155,37.479,220.155,24.55,220.155,11.559z M228.734,19.371c0,3.727,0,7.393,0,11.078c0.129,0.01,0.23,0.023,0.33,0.023
			c2.914,0.002,5.83,0.015,8.744-0.01c0.615-0.006,1.24-0.09,1.84-0.229c4.176-0.969,5.781-5.945,2.908-9.057
			c-1.209-1.309-2.84-1.758-4.543-1.798c-2.982-0.069-5.967-0.028-8.951-0.032C228.963,19.348,228.863,19.361,228.734,19.371z"/>
		<path fill-rule="evenodd" clip-rule="evenodd" fill="#CCCCCC" d="M45.208,17.218c-1.785,2.08-3.577,4.166-5.314,6.189
			c-1.38-0.926-2.645-1.938-4.049-2.683c-3.939-2.09-7.978-2.316-11.85,0.092c-3.043,1.893-4.771,4.775-5.25,8.341
			c-0.468,3.482,0.064,6.77,2.135,9.701c2.367,3.351,5.624,4.788,9.702,4.642c3.112-0.111,5.663-1.427,8.01-3.31
			c0.496-0.397,0.984-0.805,1.451-1.188c1.85,1.814,3.681,3.61,5.625,5.519c-0.529,0.485-1.024,0.931-1.511,1.386
			c-3.268,3.051-7.089,4.871-11.566,5.321c-3.711,0.375-7.352,0.172-10.816-1.285c-6.641-2.795-10.595-7.807-11.803-14.891
			c-0.992-5.813,0.111-11.228,3.646-16.023c2.874-3.901,6.788-6.272,11.49-7.279c4.639-0.994,9.224-0.7,13.655,1.074
			c2.396,0.959,4.455,2.466,6.333,4.224C45.13,17.082,45.151,17.132,45.208,17.218z"/>
		<path fill-rule="evenodd" clip-rule="evenodd" fill="#CCCCCC" d="M440.472,9.985c2.82,0,5.625,0,8.475,0c0,4.921,0,9.829,0,14.813
			c0.66-0.689,1.25-1.324,1.857-1.943c3.725-3.799,10.184-3.152,13.191-0.732c1.914,1.542,3.018,3.57,3.475,5.943
			c0.205,1.059,0.299,2.153,0.305,3.232c0.027,6.16,0.013,12.32,0.013,18.481c0,0.202,0,0.405,0,0.63c-2.847,0-5.632,0-8.468,0
			c0-0.227,0-0.429,0-0.631c0-5.229,0.01-10.458-0.01-15.687c-0.004-0.753-0.075-1.521-0.238-2.255
			c-0.682-3.084-3.271-4.629-6.389-3.832c-2.01,0.513-3.101,1.901-3.502,3.865c-0.145,0.703-0.205,1.436-0.207,2.155
			c-0.018,5.246-0.01,10.491-0.01,15.737c0,0.203,0,0.408,0,0.642c-2.843,0-5.646,0-8.492,0
			C440.472,36.939,440.472,23.478,440.472,9.985z"/>
		<path fill-rule="evenodd" clip-rule="evenodd" fill="#CCCCCC" d="M176.111,38.862c-6.86,0-13.689,0-20.553,0
			c0,0.135-0.02,0.234,0.002,0.325c0.725,3.148,3.333,5.257,6.544,5.421c2.831,0.144,5.251-0.727,7.324-2.631
			c0.163-0.15,0.333-0.294,0.542-0.478c1.63,1.46,3.24,2.904,4.871,4.365c-1.879,2.294-4.157,3.954-6.975,4.753
			c-4.731,1.344-9.378,1.163-13.688-1.393c-4.145-2.458-6.477-6.183-7.016-10.992c-0.433-3.857,0.072-7.559,2.172-10.885
			c2.821-4.467,6.911-6.779,12.225-6.895c2.783-0.061,5.396,0.509,7.832,1.89c2.717,1.541,4.378,3.933,5.508,6.755
			C176.059,31.991,176.51,35.68,176.111,38.862z M167.949,33.442c-0.246-3.244-2.578-6.488-6.766-6.169
			c-2.85,0.216-5.959,3.502-5.719,6.169C159.613,33.442,163.762,33.442,167.949,33.442z"/>
		<path fill-rule="evenodd" clip-rule="evenodd" fill="#CCCCCC" d="M286.741,38.596c-6.834,0-13.676,0-20.579,0
			c0.131,0.941,0.48,1.736,0.932,2.482c1.262,2.084,3.176,3.077,5.562,3.258c2.883,0.219,5.355-0.703,7.463-2.66
			c0.125-0.117,0.258-0.229,0.389-0.34c0.025-0.021,0.064-0.025,0.148-0.057c1.58,1.417,3.182,2.85,4.886,4.379
			c-0.778,0.742-1.491,1.508-2.29,2.17c-2.639,2.184-5.744,3.148-9.121,3.286c-5.252,0.212-9.788-1.343-13.216-5.515
			c-1.813-2.207-2.795-4.762-3.111-7.588c-0.314-2.813-0.156-5.592,0.877-8.244c2.113-5.418,6.037-8.67,11.834-9.453
			c3.491-0.473,6.831,0.107,9.883,1.99c2.081,1.283,3.517,3.105,4.584,5.272C286.515,30.693,287.267,35.234,286.741,38.596z
			 M278.595,33.182c-0.283-3.34-2.641-6.547-6.885-6.156c-2.817,0.26-5.921,3.648-5.596,6.156
			C270.262,33.182,274.412,33.182,278.595,33.182z"/>
		<path fill-rule="evenodd" clip-rule="evenodd" fill="#CCCCCC" d="M347.976,38.605c-6.889,0-13.717,0-20.576,0
			c0,0.137-0.019,0.237,0.003,0.328c0.747,3.184,3.325,5.25,6.601,5.415c2.814,0.142,5.213-0.749,7.271-2.634
			c0.163-0.15,0.332-0.295,0.537-0.475c1.621,1.452,3.221,2.886,4.93,4.416c-0.775,0.74-1.486,1.506-2.283,2.166
			c-2.744,2.273-5.979,3.213-9.48,3.308c-3.121,0.085-6.131-0.435-8.838-2.071c-4.174-2.524-6.592-6.219-7.136-11.092
			c-0.431-3.857,0.073-7.558,2.177-10.883c2.822-4.467,6.912-6.781,12.227-6.89c2.326-0.048,4.555,0.334,6.684,1.298
			c3.012,1.365,5.055,3.645,6.349,6.639C347.878,31.461,348.342,34.938,347.976,38.605z M339.792,33.182
			c-0.259-3.26-2.58-6.514-6.824-6.163c-2.825,0.233-5.937,3.571-5.658,6.163C331.458,33.182,335.606,33.182,339.792,33.182z"/>
		<path fill-rule="evenodd" clip-rule="evenodd" fill="#CCCCCC" d="M51.746,22.999c2.009-0.899,4.031-1.519,6.12-1.891
			c2.901-0.515,5.826-0.649,8.75-0.22c3.177,0.467,5.972,1.667,7.867,4.427c1.18,1.718,1.729,3.666,1.933,5.712
			c0.102,1.027,0.117,2.065,0.119,3.099c0.011,5.297,0.005,10.595,0.005,15.892c0,0.204,0,0.409,0,0.645c-2.732,0-5.43,0-8.181,0
			c0-1.001,0-1.989,0-3.042c-0.568,0.486-1.052,0.945-1.581,1.346c-1.722,1.305-3.69,1.991-5.827,2.182
			c-2.496,0.224-4.929-0.005-7.188-1.2c-3.002-1.587-4.507-4.088-4.558-7.486c-0.03-1.987,0.264-3.892,1.394-5.573
			c1.381-2.055,3.418-3.177,5.748-3.778c3.857-0.996,7.683-0.69,11.47,0.43c0.164,0.048,0.327,0.098,0.492,0.148
			c0.308-1.912-0.534-4.456-3.27-5.38c-1.544-0.521-3.126-0.506-4.706-0.343c-1.093,0.112-2.182,0.317-3.251,0.57
			c-1.069,0.253-2.111,0.617-3.227,0.95C53.162,27.356,52.462,25.203,51.746,22.999z M63.305,37.647
			c-0.701,0.067-1.406,0.115-2.104,0.214c-0.389,0.056-0.773,0.174-1.146,0.304c-2.031,0.713-3.026,2.447-2.554,4.524
			c0.335,1.474,1.44,2.177,2.799,2.516c1.525,0.38,3.064,0.273,4.531-0.245c1.792-0.634,3.186-1.744,3.57-3.733
			c0.123-0.633,0.039-1.305,0.091-1.955c0.033-0.404-0.139-0.574-0.491-0.71C66.491,37.974,64.927,37.694,63.305,37.647z"/>
		<path fill-rule="evenodd" clip-rule="evenodd" fill="#CCCCCC" d="M371.28,33.438c0.334-2.948-1.494-5.266-4.491-5.684
			c-2.897-0.405-5.694,0.125-8.447,0.99c-0.493,0.154-0.978,0.332-1.534,0.523c-0.703-2.162-1.402-4.314-2.129-6.55
			c0.758-0.29,1.482-0.591,2.224-0.847c3.909-1.345,7.933-1.75,12.028-1.326c2.668,0.275,5.156,1.086,7.178,2.972
			c1.57,1.463,2.499,3.296,2.918,5.362c0.259,1.275,0.423,2.591,0.434,3.889c0.045,5.693,0.02,11.389,0.02,17.083
			c0,0.171,0,0.341,0,0.548c-2.725,0-5.422,0-8.172,0c0-0.989,0-1.979,0-3.09c-0.344,0.326-0.593,0.574-0.855,0.809
			c-1.986,1.764-4.342,2.639-6.961,2.809c-2.318,0.15-4.579-0.097-6.686-1.186c-3.077-1.591-4.617-4.113-4.66-7.576
			c-0.025-1.972,0.271-3.857,1.387-5.523c1.379-2.058,3.414-3.184,5.743-3.786c3.856-0.998,7.683-0.692,11.47,0.424
			C370.923,33.33,371.099,33.383,371.28,33.438z M366.245,37.434c-0.008-0.045-0.017-0.089-0.025-0.135
			c-1.076,0.203-2.186,0.299-3.223,0.627c-2.049,0.648-3.029,2.439-2.553,4.51c0.338,1.473,1.442,2.176,2.803,2.512
			c1.525,0.379,3.063,0.271,4.531-0.248c1.792-0.634,3.182-1.746,3.566-3.734c0.12-0.617,0.038-1.271,0.09-1.904
			c0.031-0.409-0.104-0.611-0.495-0.762C369.425,37.719,367.862,37.436,366.245,37.434z"/>
		<path fill-rule="evenodd" clip-rule="evenodd" fill="#CCCCCC" d="M110.584,50.676c-2.855,0-5.629,0-8.467,0
			c0-0.218,0-0.418,0-0.619c0-5.245,0.01-10.491-0.011-15.736c-0.003-0.753-0.079-1.522-0.246-2.255
			c-0.695-3.062-3.256-4.589-6.36-3.808c-2.031,0.511-3.135,1.912-3.526,3.901c-0.142,0.722-0.202,1.471-0.204,2.208
			C91.753,39.578,91.761,44.789,91.761,50c0,0.206,0,0.411,0,0.656c-2.84,0-5.656,0-8.505,0c0-9.889,0-19.767,0-29.685
			c2.819,0,5.623,0,8.475,0c0,1.327,0,2.665,0,4.002c0.035,0.018,0.069,0.036,0.104,0.053c0.123-0.145,0.246-0.29,0.369-0.435
			c1.497-1.764,3.179-3.308,5.507-3.822c3.201-0.709,6.294-0.448,9.017,1.583c2.002,1.492,3.085,3.594,3.544,6.006
			c0.198,1.042,0.294,2.119,0.299,3.18c0.027,6.16,0.013,12.32,0.013,18.48C110.584,50.223,110.584,50.426,110.584,50.676z"/>
		<path fill-rule="evenodd" clip-rule="evenodd" fill="#CCCCCC" d="M290.218,46.549c1.22-1.874,2.42-3.719,3.545-5.449
			c1.613,0.847,3.124,1.752,4.725,2.45c1.884,0.821,3.893,1.214,5.957,0.869c0.586-0.097,1.193-0.364,1.678-0.71
			c0.926-0.662,0.965-1.958,0.078-2.672c-0.55-0.443-1.203-0.816-1.869-1.046c-1.771-0.611-3.598-1.065-5.357-1.704
			c-1.205-0.438-2.391-0.99-3.491-1.648c-2.173-1.3-3.438-3.244-3.652-5.802c-0.243-2.896,0.328-5.532,2.544-7.604
			c1.539-1.44,3.374-2.352,5.441-2.685c5.012-0.806,9.602,0.403,13.848,3.089c0.043,0.027,0.082,0.063,0.152,0.117
			c-1.08,1.955-2.151,3.895-3.191,5.777c-1.465-0.657-2.875-1.336-4.321-1.926c-1.267-0.516-2.601-0.84-3.978-0.76
			c-0.641,0.035-1.309,0.18-1.893,0.439c-1.243,0.55-1.385,1.965-0.375,2.864c0.756,0.673,1.666,1.019,2.594,1.35
			c1.912,0.681,3.842,1.322,5.721,2.089c0.98,0.398,1.908,0.965,2.787,1.564c2.441,1.668,3.416,4.068,3.25,6.962
			c-0.137,2.386-0.852,4.534-2.75,6.138c-1.467,1.238-3.164,2.047-5.045,2.363c-5.818,0.977-11.156-0.209-15.947-3.701
			C290.517,46.805,290.378,46.679,290.218,46.549z"/>
		<path fill-rule="evenodd" clip-rule="evenodd" fill="#CCCCCC" d="M143.447,25.397c-1.746,1.876-3.48,3.742-5.21,5.601
			c-0.728-0.614-1.397-1.267-2.149-1.799c-2.452-1.731-5.109-2.097-7.801-0.717c-2.238,1.146-3.471,3.16-3.899,5.612
			c-0.318,1.824-0.207,3.644,0.511,5.384c1.316,3.193,4.411,4.939,7.85,4.555c1.985-0.222,3.563-1.195,5.064-2.386
			c0.27-0.213,0.525-0.443,0.816-0.689c0.834,0.834,1.654,1.667,2.486,2.485c0.836,0.822,1.684,1.631,2.549,2.468
			c-1.385,1.507-2.846,2.748-4.551,3.685c-2.764,1.52-5.755,1.924-8.852,1.761c-3.568-0.188-6.72-1.457-9.38-3.835
			c-2.838-2.538-4.46-5.736-4.894-9.522c-0.488-4.254,0.394-8.167,3.034-11.589c2.458-3.185,5.721-5.101,9.683-5.73
			c3.377-0.537,6.705-0.299,9.873,1.122C140.444,22.639,142.029,23.868,143.447,25.397z"/>
		<path fill-rule="evenodd" clip-rule="evenodd" fill="#CCCCCC" d="M435.601,45.676c-2.922,3.207-6.371,5.119-10.68,5.396
			c-2.963,0.19-5.824-0.114-8.502-1.444c-4.926-2.445-7.776-6.422-8.457-11.878c-0.588-4.724,0.585-8.976,3.814-12.54
			c2.577-2.843,5.828-4.48,9.646-4.898c3.127-0.342,6.196-0.092,9.109,1.227c1.864,0.845,3.451,2.066,4.879,3.602
			c-1.742,1.873-3.476,3.736-5.238,5.631c-0.363-0.34-0.709-0.668-1.061-0.988c-1.465-1.348-3.135-2.229-5.165-2.338
			c-2.747-0.146-4.815,0.996-6.357,3.232c-2.062,2.992-1.935,8.438,1.093,11.207c1.682,1.538,3.654,2.037,5.863,1.9
			c2.053-0.128,3.682-1.155,5.222-2.387c0.269-0.215,0.526-0.444,0.741-0.625C432.204,42.405,433.888,44.026,435.601,45.676z"/>
		<path fill-rule="evenodd" clip-rule="evenodd" fill="#CCCCCC" d="M182.061,20.952c2.846,0,5.637,0,8.471,0c0,1.876,0,3.733,0,5.59
			c1.879-4.049,4.855-6.326,9.496-6.11c0,2.946,0,5.838,0,8.773c-0.598,0.041-1.194,0.057-1.785,0.125
			c-3.936,0.459-6.473,2.728-7.266,6.598c-0.252,1.224-0.387,2.49-0.406,3.74c-0.053,3.467-0.018,6.936-0.018,10.404
			c0,0.186,0,0.374,0,0.591c-2.842,0-5.646,0-8.492,0C182.061,40.774,182.061,30.886,182.061,20.952z"/>
		<path fill-rule="evenodd" clip-rule="evenodd" fill="#CCCCCC" d="M394.702,50.406c-2.877,0-5.682,0-8.508,0
			c0-9.906,0-19.785,0-29.699c2.832,0,5.637,0,8.482,0c0,1.858,0,3.717,0,5.574c0.033,0.028,0.066,0.057,0.1,0.086
			c1.785-4.13,4.758-6.409,9.398-6.193c0,2.941,0,5.834,0,8.773c-0.592,0.04-1.186,0.068-1.777,0.123
			c-4.092,0.373-6.677,3.012-7.379,7.098c-0.203,1.184-0.289,2.396-0.303,3.598c-0.04,3.348-0.014,6.695-0.014,10.043
			C394.702,49.995,394.702,50.183,394.702,50.406z"/>
		<path fill-rule="evenodd" clip-rule="evenodd" fill="#FFFFFF" d="M228.734,19.371c0.129-0.01,0.229-0.023,0.328-0.023
			c2.984,0.004,5.969-0.037,8.951,0.032c1.703,0.04,3.334,0.489,4.543,1.798c2.873,3.111,1.268,8.088-2.908,9.057
			c-0.6,0.139-1.225,0.223-1.84,0.229c-2.914,0.024-5.83,0.012-8.744,0.01c-0.1,0-0.201-0.014-0.33-0.023
			C228.734,26.764,228.734,23.098,228.734,19.371z"/>
		<path fill-rule="evenodd" clip-rule="evenodd" fill="#FFFFFF" d="M167.949,33.442c-4.188,0-8.336,0-12.484,0
			c-0.24-2.667,2.869-5.953,5.719-6.169C165.371,26.954,167.703,30.198,167.949,33.442z"/>
		<path fill-rule="evenodd" clip-rule="evenodd" fill="#FFFFFF" d="M278.595,33.182c-4.183,0-8.333,0-12.48,0
			c-0.325-2.508,2.778-5.896,5.596-6.156C275.954,26.635,278.312,29.842,278.595,33.182z"/>
		<path fill-rule="evenodd" clip-rule="evenodd" fill="#FFFFFF" d="M339.792,33.182c-4.186,0-8.334,0-12.482,0
			c-0.278-2.592,2.833-5.93,5.658-6.163C337.212,26.668,339.533,29.922,339.792,33.182z"/>
		<path fill-rule="evenodd" clip-rule="evenodd" fill="#FFFFFF" d="M63.305,37.647c1.622,0.046,3.186,0.327,4.698,0.915
			c0.352,0.137,0.524,0.307,0.491,0.71c-0.053,0.65,0.031,1.322-0.091,1.955c-0.384,1.989-1.778,3.099-3.57,3.733
			c-1.467,0.518-3.006,0.625-4.531,0.245c-1.358-0.339-2.463-1.042-2.799-2.516c-0.473-2.077,0.523-3.812,2.554-4.524
			c0.372-0.13,0.757-0.248,1.146-0.304C61.899,37.762,62.604,37.715,63.305,37.647z"/>
		<path fill-rule="evenodd" clip-rule="evenodd" fill="#FFFFFF" d="M366.245,37.434c1.617,0.002,3.18,0.285,4.694,0.865
			c0.391,0.15,0.526,0.353,0.495,0.762c-0.052,0.633,0.03,1.287-0.09,1.904c-0.385,1.988-1.774,3.101-3.566,3.734
			c-1.468,0.52-3.006,0.627-4.531,0.248c-1.36-0.336-2.465-1.039-2.803-2.512c-0.477-2.07,0.504-3.861,2.553-4.51
			c1.037-0.328,2.146-0.424,3.223-0.627C366.229,37.345,366.237,37.389,366.245,37.434z"/>
	</g>
</g>
</svg>
