<?xml version="1.0" encoding="utf-8"?>
<!-- Generator: Adobe Illustrator 16.0.0, SVG Export Plug-In . SVG Version: 6.00 Build 0)  -->
<!DOCTYPE svg PUBLIC "-//W3C//DTD SVG 1.1//EN" "http://www.w3.org/Graphics/SVG/1.1/DTD/svg11.dtd">
<svg version="1.1" id="Layer_1" xmlns="http://www.w3.org/2000/svg" xmlns:xlink="http://www.w3.org/1999/xlink" x="0px" y="0px"
	 width="81.167px" height="79px" viewBox="0 0 81.167 79" enable-background="new 0 0 81.167 79" xml:space="preserve">
<g id="Layer_1_1_">
</g>
<g id="Layer_2" display="none">
	<path display="inline" fill="none" stroke="#40826D" stroke-width="2" stroke-miterlimit="10" d="M9.501,5.326
		c0,2.186-1.763,3.958-3.934,3.958c-2.172,0-3.939-1.772-3.939-3.958s1.767-3.958,3.939-3.958C7.738,1.368,9.501,3.14,9.501,5.326z"
		/>
	<path display="inline" fill="none" stroke="#40826D" stroke-width="2" stroke-miterlimit="10" d="M9.501,38.475
		c0,2.186-1.763,3.958-3.934,3.958c-2.172,0-3.939-1.772-3.939-3.958s1.767-3.958,3.939-3.958
		C7.738,34.517,9.501,36.289,9.501,38.475z"/>
	<path display="inline" fill="none" stroke="#40826D" stroke-width="2" stroke-miterlimit="10" d="M9.501,73.826
		c0,2.186-1.763,3.958-3.934,3.958c-2.172,0-3.939-1.772-3.939-3.958s1.767-3.958,3.939-3.958
		C7.738,69.868,9.501,71.641,9.501,73.826z"/>
	
		<circle display="inline" fill="none" stroke="#40826D" stroke-width="2" stroke-miterlimit="10" cx="75.762" cy="5.326" r="3.958"/>
	
		<circle display="inline" fill="none" stroke="#40826D" stroke-width="2" stroke-miterlimit="10" cx="75.762" cy="38.475" r="3.958"/>
	
		<circle display="inline" fill="none" stroke="#40826D" stroke-width="2" stroke-miterlimit="10" cx="75.762" cy="73.826" r="3.958"/>
	
		<circle display="inline" fill="none" stroke="#40826D" stroke-width="2" stroke-miterlimit="10" cx="40.978" cy="23.109" r="3.958"/>
	
		<circle display="inline" fill="none" stroke="#40826D" stroke-width="2" stroke-miterlimit="10" cx="40.978" cy="58.461" r="3.958"/>
	
		<line display="inline" fill="none" stroke="#40826D" stroke-width="2" stroke-miterlimit="10" x1="9.501" y1="7.16" x2="37.02" y2="21.16"/>
	
		<line display="inline" fill="none" stroke="#40826D" stroke-width="2" stroke-miterlimit="10" x1="9.501" y1="38.475" x2="37.02" y2="21.16"/>
	
		<line display="inline" fill="none" stroke="#40826D" stroke-width="2" stroke-miterlimit="10" x1="9.501" y1="38.475" x2="37.02" y2="58.461"/>
	
		<line display="inline" fill="none" stroke="#40826D" stroke-width="2" stroke-miterlimit="10" x1="9.501" y1="73.826" x2="36.308" y2="58.461"/>
	
		<line display="inline" fill="none" stroke="#40826D" stroke-width="2" stroke-miterlimit="10" x1="9.501" y1="7.16" x2="37.02" y2="58.461"/>
	
		<line display="inline" fill="none" stroke="#40826D" stroke-width="2" stroke-miterlimit="10" x1="10.468" y1="73.271" x2="37.02" y2="21.16"/>
	
		<line display="inline" fill="none" stroke="#40826D" stroke-width="2" stroke-miterlimit="10" x1="72.503" y1="7.16" x2="44.985" y2="21.16"/>
	
		<line display="inline" fill="none" stroke="#40826D" stroke-width="2" stroke-miterlimit="10" x1="72.503" y1="38.475" x2="44.985" y2="21.16"/>
	
		<line display="inline" fill="none" stroke="#40826D" stroke-width="2" stroke-miterlimit="10" x1="72.503" y1="38.475" x2="44.985" y2="58.461"/>
	
		<line display="inline" fill="none" stroke="#40826D" stroke-width="2" stroke-miterlimit="10" x1="72.503" y1="73.826" x2="45.697" y2="58.461"/>
	
		<line display="inline" fill="none" stroke="#40826D" stroke-width="2" stroke-miterlimit="10" x1="72.503" y1="7.16" x2="44.985" y2="58.461"/>
	
		<line display="inline" fill="none" stroke="#40826D" stroke-width="2" stroke-miterlimit="10" x1="71.537" y1="73.271" x2="44.985" y2="21.16"/>
</g>
<g id="Layer_3" display="none">
	<path display="inline" fill="#40826D" d="M40.221,59.711c5.757,0,10.95-0.972,14.692-2.541c3.45-1.449,5.59-3.341,5.59-5.332
		c0-1.99-2.14-3.883-5.59-5.332c-3.742-1.57-8.938-2.541-14.692-2.541c-5.756,0-10.949,0.971-14.692,2.541
		c-3.452,1.448-5.589,3.342-5.589,5.332c0,1.991,2.137,3.883,5.589,5.332C29.271,58.739,34.464,59.711,40.221,59.711L40.221,59.711z
		 M46.505,31.378c1.748,1.082,3.328,2.644,4.596,4.683c1.289,2.072,2.259,4.644,2.753,7.71c0.53,0.177,1.041,0.362,1.53,0.56
		c0.652-1.004,1.382-1.886,2.169-2.647c0.702-0.681,1.456-1.266,2.243-1.751c-1.322-1.486-2.127-3.445-2.127-5.591
		c0-2.323,0.94-4.426,2.465-5.948c1.523-1.522,3.625-2.464,5.947-2.464c2.321,0,4.426,0.942,5.947,2.464s2.465,3.625,2.465,5.948
		c0,2.146-0.806,4.105-2.127,5.591c2.154,1.335,4.062,3.408,5.438,6.21c1.416,2.879,2.275,6.532,2.275,10.949v1.096H57.83
		c-0.638,0.356-1.33,0.691-2.07,1.002c-3.993,1.678-9.489,2.713-15.539,2.713c-6.05,0-11.545-1.036-15.539-2.713
		c-0.742-0.311-1.434-0.646-2.071-1.002H0.358v-1.096c0-4.417,0.861-8.07,2.277-10.949c1.378-2.803,3.283-4.875,5.438-6.21
		c-1.322-1.486-2.126-3.445-2.126-5.591c0-2.323,0.942-4.426,2.456-5.948c1.53-1.522,3.634-2.464,5.957-2.464
		c2.322,0,4.426,0.942,5.948,2.464s2.464,3.625,2.464,5.948c0,2.146-0.804,4.105-2.127,5.591c0.788,0.488,1.54,1.072,2.244,1.751
		c0.787,0.76,1.517,1.645,2.169,2.647c0.489-0.196,1-0.383,1.529-0.56c0.495-3.066,1.465-5.64,2.754-7.71
		c1.268-2.039,2.848-3.601,4.594-4.683c-1.323-1.486-2.127-3.445-2.127-5.591c0-2.323,0.942-4.426,2.464-5.948
		s3.626-2.464,5.948-2.464s4.427,0.941,5.947,2.464c1.521,1.522,2.465,3.625,2.465,5.948C48.632,27.934,47.83,29.892,46.505,31.378
		L46.505,31.378z M51.505,43.089c-0.479-2.31-1.264-4.267-2.264-5.872c-1.234-1.988-2.796-3.432-4.498-4.335
		c-1.309,0.833-2.859,1.317-4.522,1.317c-1.664,0-3.215-0.483-4.521-1.317c-1.705,0.903-3.264,2.348-4.5,4.335
		c-0.998,1.605-1.784,3.563-2.264,5.872c3.307-0.836,7.167-1.315,11.285-1.315S48.201,42.253,51.505,43.089L51.505,43.089z
		 M44.619,21.389c-1.125-1.125-2.681-1.822-4.396-1.822c-1.717,0-3.272,0.696-4.398,1.822c-1.125,1.125-1.821,2.681-1.821,4.398
		c0,1.718,0.696,3.273,1.821,4.398c1.126,1.126,2.681,1.822,4.398,1.822c1.717,0,3.271-0.696,4.396-1.822
		c1.127-1.125,1.822-2.68,1.822-4.398C46.441,24.069,45.746,22.514,44.619,21.389L44.619,21.389z M23.047,45.252
		c-3.313,1.734-5.3,4.021-5.3,6.586c0,1.499,0.68,2.903,1.905,4.158H2.569c0.127-3.58,0.872-6.542,2.027-8.895
		c1.319-2.684,3.172-4.571,5.242-5.668c1.307,0.834,2.857,1.316,4.522,1.316c1.664,0,3.216-0.482,4.522-1.316
		c0.874,0.463,1.713,1.071,2.491,1.824C21.973,43.837,22.534,44.503,23.047,45.252L23.047,45.252z M18.759,29.94
		c-1.125-1.125-2.681-1.821-4.398-1.821c-1.717,0-3.273,0.696-4.398,1.821c-1.134,1.125-1.827,2.681-1.827,4.399
		c0,1.718,0.693,3.273,1.827,4.399c1.125,1.125,2.681,1.823,4.398,1.823c1.717,0,3.273-0.698,4.398-1.823s1.822-2.681,1.822-4.399
		C20.581,32.621,19.884,31.066,18.759,29.94L18.759,29.94z M60.791,55.996c1.227-1.254,1.903-2.659,1.903-4.158
		c0-2.564-1.985-4.852-5.299-6.585c0.513-0.75,1.073-1.415,1.673-1.994c0.778-0.753,1.617-1.362,2.491-1.825
		c1.308,0.834,2.856,1.317,4.522,1.317c1.664,0,3.215-0.483,4.521-1.317c2.069,1.098,3.922,2.984,5.241,5.668
		c1.156,2.354,1.9,5.314,2.027,8.896L60.791,55.996L60.791,55.996z M70.48,29.94c-1.125-1.125-2.682-1.821-4.398-1.821
		c-1.715,0-3.271,0.696-4.397,1.821c-1.125,1.125-1.821,2.681-1.821,4.399c0,1.718,0.696,3.273,1.821,4.399
		c1.126,1.125,2.683,1.823,4.397,1.823c1.717,0,3.273-0.698,4.398-1.823s1.82-2.681,1.82-4.399
		C72.302,32.621,71.605,31.066,70.48,29.94z"/>
</g>
<g id="Layer_4" display="none">
	<path display="inline" fill="#40826D" d="M40.674,1.077c2.564,0,4.886,1.04,6.566,2.72c1.682,1.681,2.721,4.002,2.721,6.566
		c0,2.339-0.863,4.478-2.293,6.109c2.345,1.473,4.412,3.736,5.914,6.789c1.556,3.164,2.502,7.176,2.502,12.026v1.272H25.267v-1.272
		c0-4.85,0.946-8.862,2.501-12.026c1.501-3.053,3.569-5.315,5.914-6.789c-1.429-1.632-2.294-3.77-2.294-6.109
		c0-2.564,1.041-4.886,2.72-6.566C35.789,2.116,38.11,1.077,40.674,1.077L40.674,1.077z M70.91,57.378
		c2.344,1.472,4.412,3.736,5.914,6.788c1.555,3.165,2.502,7.176,2.502,12.025v1.271H48.509v-1.271c0-4.851,0.945-8.861,2.502-12.025
		c1.5-3.052,3.568-5.316,5.912-6.788c-1.428-1.633-2.293-3.771-2.293-6.11c0-2.563,1.039-4.885,2.721-6.564s4.002-2.721,6.566-2.721
		c2.563,0,4.886,1.039,6.564,2.721c1.682,1.681,2.721,4.002,2.721,6.564C73.203,53.607,72.337,55.745,70.91,57.378L70.91,57.378z
		 M58.96,59.122c-2.239,1.196-4.244,3.248-5.674,6.155c-1.257,2.553-2.065,5.766-2.211,9.644h25.682
		c-0.146-3.878-0.955-7.09-2.209-9.642c-1.432-2.909-3.438-4.961-5.676-6.157c-1.435,0.907-3.135,1.433-4.955,1.433
		C62.095,60.555,60.394,60.029,58.96,59.122L58.96,59.122z M68.685,46.5c-1.221-1.22-2.905-1.975-4.768-1.975
		c-1.863,0-3.549,0.755-4.771,1.975c-1.22,1.22-1.976,2.906-1.976,4.768c0,1.862,0.756,3.549,1.976,4.771
		c1.222,1.221,2.906,1.976,4.771,1.976c1.861,0,3.547-0.755,4.768-1.976c1.221-1.222,1.975-2.906,1.975-4.771
		C70.66,49.406,69.905,47.72,68.685,46.5L68.685,46.5z M24.426,57.378c2.343,1.472,4.412,3.736,5.913,6.788
		c1.555,3.165,2.502,7.176,2.502,12.025v1.271H2.01v-1.271c0-4.851,0.947-8.861,2.502-12.025c1.5-3.052,3.57-5.316,5.923-6.788
		c-1.438-1.633-2.303-3.771-2.303-6.11c0-2.563,1.041-4.885,2.733-6.564c1.682-1.682,4.003-2.721,6.566-2.721
		c2.564,0,4.886,1.039,6.566,2.721c1.68,1.681,2.721,4.002,2.721,6.564C26.719,53.607,25.854,55.745,24.426,57.378L24.426,57.378z
		 M12.476,59.122c-2.243,1.196-4.258,3.248-5.688,6.157c-1.255,2.552-2.065,5.764-2.21,9.642h25.697
		c-0.146-3.878-0.956-7.091-2.211-9.644c-1.43-2.907-3.435-4.959-5.674-6.155c-1.436,0.907-3.136,1.433-4.958,1.433
		C15.61,60.555,13.909,60.029,12.476,59.122L12.476,59.122z M22.2,46.5c-1.22-1.22-2.906-1.975-4.769-1.975
		c-1.861,0-3.549,0.755-4.768,1.975c-1.22,1.22-1.978,2.906-1.978,4.768c0,1.862,0.758,3.549,1.978,4.771
		c1.219,1.22,2.906,1.976,4.768,1.976c1.862,0,3.549-0.755,4.769-1.976c1.22-1.222,1.975-2.906,1.975-4.771
		C24.175,49.406,23.42,47.72,22.2,46.5L22.2,46.5z M41.946,40.811h-2.543v7.334l-8.035,8.035l1.798,1.799l7.508-7.509l7.509,7.509
		l1.798-1.799l-8.034-8.035L41.946,40.811L41.946,40.811z M45.63,18.217c-1.436,0.907-3.135,1.432-4.958,1.432
		c-1.822,0-3.522-0.525-4.956-1.433c-2.239,1.197-4.244,3.249-5.675,6.157c-1.254,2.552-2.064,5.764-2.21,9.642h25.683
		c-0.146-3.878-0.955-7.09-2.21-9.642C49.875,21.465,47.871,19.413,45.63,18.217L45.63,18.217z M45.442,5.595
		c-1.22-1.22-2.905-1.975-4.769-1.975c-1.861,0-3.548,0.755-4.768,1.975c-1.22,1.22-1.975,2.906-1.975,4.768
		c0,1.862,0.755,3.548,1.975,4.768c1.22,1.22,2.906,1.975,4.768,1.975c1.864,0,3.549-0.754,4.769-1.975
		c1.22-1.22,1.976-2.906,1.976-4.768C47.417,8.501,46.662,6.815,45.442,5.595z"/>
</g>
<g>
	<path fill="none" stroke="#40826D" stroke-width="2.2" stroke-miterlimit="10" d="M17.641,4.824h-9.92
		c-2.725,0-4.959,2.229-4.959,4.958v60.733c0,2.729,2.234,4.957,4.959,4.957h9.92c2.726,0,4.958-2.228,4.958-4.957V9.781
		C22.599,7.052,20.366,4.824,17.641,4.824z M12.68,68.701c-2.729,0-4.94-2.21-4.94-4.94c0-2.729,2.212-4.942,4.94-4.942
		c2.73,0,4.943,2.214,4.943,4.942C17.623,66.491,15.41,68.701,12.68,68.701z M19.293,48.383H6.07V18.251h13.223V48.383z"/>
	<path fill="none" stroke="#40826D" stroke-width="2.2" stroke-miterlimit="10" d="M40.129,4.824h-9.896
		c-2.725,0-4.959,2.229-4.959,4.958v60.733c0,2.729,2.234,4.957,4.959,4.957h9.896c2.717,0,4.953-2.228,4.953-4.957V9.781
		C45.082,7.052,42.846,4.824,40.129,4.824z M35.193,68.701c-2.73,0-4.94-2.21-4.94-4.94c0-2.729,2.21-4.942,4.94-4.942
		c2.712,0,4.917,2.214,4.917,4.942C40.111,66.491,37.906,68.701,35.193,68.701z M41.774,48.383H28.583V18.251h13.191V48.383z"/>
	<path fill="none" stroke="#40826D" stroke-width="2.2" stroke-miterlimit="10" d="M78.88,67.291L65.718,8.001
		c-0.594-2.666-3.256-4.356-5.916-3.767l-9.682,2.151c-2.664,0.591-4.361,3.249-3.77,5.915l13.164,59.29
		c0.592,2.665,3.255,4.355,5.915,3.764l9.685-2.146C77.776,72.616,79.474,69.956,78.88,67.291z M57.949,49.268l-6.533-29.416
		l12.91-2.866l6.53,29.415L57.949,49.268z M68.807,67.671c-2.664,0.595-5.306-1.088-5.896-3.753
		c-0.593-2.663,1.088-5.304,3.752-5.895c2.664-0.592,5.306,1.088,5.896,3.752C73.151,64.441,71.469,67.08,68.807,67.671z"/>
</g>
</svg>
