<?xml version="1.0" encoding="utf-8"?>
<!-- Generator: Adobe Illustrator 16.0.0, SVG Export Plug-In . SVG Version: 6.00 Build 0)  -->
<!DOCTYPE svg PUBLIC "-//W3C//DTD SVG 1.1//EN" "http://www.w3.org/Graphics/SVG/1.1/DTD/svg11.dtd">
<svg version="1.1" xmlns="http://www.w3.org/2000/svg" xmlns:xlink="http://www.w3.org/1999/xlink" x="0px" y="0px"
	 width="81.167px" height="79px" viewBox="0 0 81.167 79" enable-background="new 0 0 81.167 79" xml:space="preserve">
<g id="Layer_1">
</g>
<g id="Layer_2" display="none">
	<path display="inline" fill="none" stroke="#40826D" stroke-width="2" stroke-miterlimit="10" d="M9.501,5.326
		c0,2.186-1.763,3.958-3.934,3.958c-2.172,0-3.939-1.772-3.939-3.958s1.767-3.958,3.939-3.958C7.738,1.368,9.501,3.14,9.501,5.326z"
		/>
	<path display="inline" fill="none" stroke="#40826D" stroke-width="2" stroke-miterlimit="10" d="M9.501,38.475
		c0,2.186-1.763,3.958-3.934,3.958c-2.172,0-3.939-1.772-3.939-3.958s1.767-3.958,3.939-3.958
		C7.738,34.517,9.501,36.289,9.501,38.475z"/>
	<path display="inline" fill="none" stroke="#40826D" stroke-width="2" stroke-miterlimit="10" d="M9.501,73.826
		c0,2.186-1.763,3.958-3.934,3.958c-2.172,0-3.939-1.772-3.939-3.958s1.767-3.958,3.939-3.958
		C7.738,69.868,9.501,71.64,9.501,73.826z"/>
	
		<circle display="inline" fill="none" stroke="#40826D" stroke-width="2" stroke-miterlimit="10" cx="75.762" cy="5.326" r="3.958"/>
	
		<circle display="inline" fill="none" stroke="#40826D" stroke-width="2" stroke-miterlimit="10" cx="75.762" cy="38.475" r="3.958"/>
	
		<circle display="inline" fill="none" stroke="#40826D" stroke-width="2" stroke-miterlimit="10" cx="75.762" cy="73.826" r="3.958"/>
	
		<circle display="inline" fill="none" stroke="#40826D" stroke-width="2" stroke-miterlimit="10" cx="40.978" cy="23.109" r="3.958"/>
	
		<circle display="inline" fill="none" stroke="#40826D" stroke-width="2" stroke-miterlimit="10" cx="40.978" cy="58.461" r="3.958"/>
	
		<line display="inline" fill="none" stroke="#40826D" stroke-width="2" stroke-miterlimit="10" x1="9.501" y1="7.16" x2="37.02" y2="21.16"/>
	
		<line display="inline" fill="none" stroke="#40826D" stroke-width="2" stroke-miterlimit="10" x1="9.501" y1="38.475" x2="37.02" y2="21.16"/>
	
		<line display="inline" fill="none" stroke="#40826D" stroke-width="2" stroke-miterlimit="10" x1="9.501" y1="38.475" x2="37.02" y2="58.461"/>
	
		<line display="inline" fill="none" stroke="#40826D" stroke-width="2" stroke-miterlimit="10" x1="9.501" y1="73.826" x2="36.308" y2="58.461"/>
	
		<line display="inline" fill="none" stroke="#40826D" stroke-width="2" stroke-miterlimit="10" x1="9.501" y1="7.16" x2="37.02" y2="58.461"/>
	
		<line display="inline" fill="none" stroke="#40826D" stroke-width="2" stroke-miterlimit="10" x1="10.468" y1="73.272" x2="37.02" y2="21.16"/>
	
		<line display="inline" fill="none" stroke="#40826D" stroke-width="2" stroke-miterlimit="10" x1="72.504" y1="7.16" x2="44.985" y2="21.16"/>
	
		<line display="inline" fill="none" stroke="#40826D" stroke-width="2" stroke-miterlimit="10" x1="72.504" y1="38.475" x2="44.985" y2="21.16"/>
	
		<line display="inline" fill="none" stroke="#40826D" stroke-width="2" stroke-miterlimit="10" x1="72.504" y1="38.475" x2="44.985" y2="58.461"/>
	
		<line display="inline" fill="none" stroke="#40826D" stroke-width="2" stroke-miterlimit="10" x1="72.504" y1="73.826" x2="45.697" y2="58.461"/>
	
		<line display="inline" fill="none" stroke="#40826D" stroke-width="2" stroke-miterlimit="10" x1="72.504" y1="7.16" x2="44.985" y2="58.461"/>
	
		<line display="inline" fill="none" stroke="#40826D" stroke-width="2" stroke-miterlimit="10" x1="71.537" y1="73.272" x2="44.985" y2="21.16"/>
</g>
<g id="Layer_3">
	<path fill-rule="evenodd" clip-rule="evenodd" fill="#40826D" d="M40.221,59.711c5.757,0,10.95-0.972,14.692-2.541
		c3.452-1.449,5.59-3.341,5.59-5.332c0-1.991-2.138-3.883-5.59-5.332c-3.742-1.57-8.936-2.541-14.692-2.541
		s-10.949,0.971-14.692,2.541c-3.452,1.448-5.589,3.341-5.589,5.332c0,1.991,2.137,3.883,5.589,5.332
		C29.271,58.739,34.464,59.711,40.221,59.711L40.221,59.711z M46.506,31.378c1.747,1.082,3.327,2.644,4.595,4.683
		c1.289,2.072,2.259,4.644,2.753,7.711c0.53,0.176,1.041,0.363,1.53,0.559c0.652-1.004,1.382-1.886,2.169-2.648
		c0.703-0.68,1.456-1.265,2.244-1.752c-1.323-1.486-2.128-3.445-2.128-5.591c0-2.323,0.942-4.426,2.465-5.948
		s3.626-2.464,5.948-2.464s4.426,0.942,5.948,2.464c1.521,1.522,2.464,3.625,2.464,5.948c0,2.146-0.805,4.105-2.127,5.591
		c2.155,1.337,4.061,3.408,5.438,6.211c1.416,2.88,2.277,6.533,2.277,10.95v1.096H57.832c-0.638,0.356-1.33,0.691-2.071,1.002
		c-3.994,1.676-9.49,2.712-15.54,2.712s-11.545-1.037-15.539-2.712c-0.742-0.311-1.434-0.646-2.071-1.002H0.358v-1.096
		c0-4.417,0.861-8.07,2.277-10.95c1.378-2.802,3.283-4.874,5.438-6.211c-1.322-1.486-2.126-3.445-2.126-5.591
		c0-2.323,0.942-4.426,2.456-5.948c1.53-1.522,3.634-2.464,5.957-2.464c2.322,0,4.426,0.942,5.948,2.464s2.464,3.625,2.464,5.948
		c0,2.146-0.804,4.105-2.127,5.591c0.788,0.488,1.54,1.072,2.244,1.752c0.787,0.761,1.517,1.644,2.169,2.648
		c0.489-0.196,1-0.383,1.529-0.559c0.495-3.067,1.465-5.639,2.754-7.711c1.268-2.039,2.848-3.601,4.594-4.683
		c-1.323-1.486-2.127-3.445-2.127-5.591c0-2.323,0.942-4.426,2.464-5.948c1.522-1.522,3.626-2.464,5.948-2.464
		c2.323,0,4.427,0.941,5.948,2.464c1.522,1.522,2.464,3.625,2.464,5.948C48.633,27.934,47.829,29.892,46.506,31.378L46.506,31.378z
		 M51.506,43.089c-0.479-2.31-1.265-4.267-2.264-5.872c-1.235-1.988-2.795-3.432-4.499-4.335c-1.307,0.833-2.858,1.317-4.522,1.317
		s-3.215-0.483-4.521-1.317c-1.705,0.903-3.264,2.348-4.5,4.335c-0.998,1.605-1.784,3.563-2.264,5.872
		c3.307-0.836,7.167-1.316,11.285-1.316S48.2,42.253,51.506,43.089L51.506,43.089z M44.619,21.389
		c-1.125-1.125-2.681-1.822-4.398-1.822s-3.272,0.696-4.398,1.822c-1.125,1.125-1.821,2.681-1.821,4.398
		c0,1.718,0.696,3.273,1.821,4.398c1.126,1.126,2.681,1.822,4.398,1.822s3.273-0.696,4.398-1.822
		c1.126-1.125,1.822-2.68,1.822-4.398C46.441,24.069,45.745,22.514,44.619,21.389L44.619,21.389z M23.047,45.252
		c-3.313,1.735-5.3,4.022-5.3,6.586c0,1.499,0.68,2.903,1.905,4.158H2.569c0.127-3.58,0.872-6.542,2.027-8.895
		c1.319-2.682,3.172-4.571,5.242-5.667c1.307,0.834,2.857,1.317,4.522,1.317c1.664,0,3.216-0.483,4.522-1.317
		c0.874,0.463,1.713,1.072,2.491,1.825C21.973,43.837,22.534,44.503,23.047,45.252L23.047,45.252z M18.759,29.94
		c-1.125-1.125-2.681-1.821-4.398-1.821s-3.273,0.696-4.398,1.821c-1.134,1.125-1.827,2.681-1.827,4.399
		c0,1.718,0.693,3.273,1.827,4.399c1.125,1.125,2.681,1.822,4.398,1.822s3.273-0.697,4.398-1.822
		c1.125-1.125,1.822-2.681,1.822-4.399C20.581,32.621,19.884,31.066,18.759,29.94L18.759,29.94z M60.79,55.996
		c1.226-1.254,1.904-2.659,1.904-4.158c0-2.564-1.986-4.851-5.299-6.585c0.513-0.75,1.073-1.415,1.673-1.994
		c0.778-0.753,1.617-1.362,2.491-1.825c1.307,0.834,2.857,1.317,4.522,1.317c1.664,0,3.216-0.483,4.521-1.317
		c2.069,1.096,3.922,2.984,5.241,5.667c1.156,2.353,1.901,5.315,2.027,8.895H60.79L60.79,55.996z M70.48,29.94
		c-1.125-1.125-2.681-1.821-4.398-1.821s-3.273,0.696-4.399,1.821c-1.125,1.125-1.821,2.681-1.821,4.399
		c0,1.718,0.696,3.273,1.821,4.399c1.126,1.125,2.682,1.822,4.399,1.822s3.273-0.697,4.398-1.822
		c1.125-1.125,1.821-2.681,1.821-4.399C72.302,32.621,71.605,31.066,70.48,29.94z"/>
</g>
</svg>
