<?xml version="1.0" encoding="utf-8"?>
<!-- Generator: Adobe Illustrator 16.0.0, SVG Export Plug-In . SVG Version: 6.00 Build 0)  -->
<!DOCTYPE svg PUBLIC "-//W3C//DTD SVG 1.1//EN" "http://www.w3.org/Graphics/SVG/1.1/DTD/svg11.dtd">
<svg version="1.1" id="Layer_1" xmlns="http://www.w3.org/2000/svg" xmlns:xlink="http://www.w3.org/1999/xlink" x="0px" y="0px"
	 width="81.167px" height="64.742px" viewBox="0 0 81.167 64.742" enable-background="new 0 0 81.167 64.742" xml:space="preserve">
<g id="Layer_1_1_">
</g>
<g id="Layer_2" display="none">
	<path display="inline" fill="none" stroke="#40826D" stroke-width="2" stroke-miterlimit="10" d="M9.501,5.326
		c0,2.186-1.763,3.958-3.934,3.958c-2.172,0-3.939-1.772-3.939-3.958s1.767-3.958,3.939-3.958C7.738,1.368,9.501,3.14,9.501,5.326z"
		/>
	<path display="inline" fill="none" stroke="#40826D" stroke-width="2" stroke-miterlimit="10" d="M9.501,38.475
		c0,2.186-1.763,3.958-3.934,3.958c-2.172,0-3.939-1.772-3.939-3.958s1.767-3.958,3.939-3.958
		C7.738,34.517,9.501,36.289,9.501,38.475z"/>
	<path display="inline" fill="none" stroke="#40826D" stroke-width="2" stroke-miterlimit="10" d="M9.501,73.826
		c0,2.186-1.763,3.958-3.934,3.958c-2.172,0-3.939-1.772-3.939-3.958s1.767-3.958,3.939-3.958
		C7.738,69.868,9.501,71.641,9.501,73.826z"/>
	
		<circle display="inline" fill="none" stroke="#40826D" stroke-width="2" stroke-miterlimit="10" cx="75.762" cy="5.326" r="3.958"/>
	
		<circle display="inline" fill="none" stroke="#40826D" stroke-width="2" stroke-miterlimit="10" cx="75.762" cy="38.475" r="3.958"/>
	
		<circle display="inline" fill="none" stroke="#40826D" stroke-width="2" stroke-miterlimit="10" cx="75.762" cy="73.826" r="3.958"/>
	
		<circle display="inline" fill="none" stroke="#40826D" stroke-width="2" stroke-miterlimit="10" cx="40.978" cy="23.109" r="3.958"/>
	
		<circle display="inline" fill="none" stroke="#40826D" stroke-width="2" stroke-miterlimit="10" cx="40.978" cy="58.461" r="3.958"/>
	
		<line display="inline" fill="none" stroke="#40826D" stroke-width="2" stroke-miterlimit="10" x1="9.501" y1="7.16" x2="37.02" y2="21.16"/>
	
		<line display="inline" fill="none" stroke="#40826D" stroke-width="2" stroke-miterlimit="10" x1="9.501" y1="38.475" x2="37.02" y2="21.16"/>
	
		<line display="inline" fill="none" stroke="#40826D" stroke-width="2" stroke-miterlimit="10" x1="9.501" y1="38.475" x2="37.02" y2="58.461"/>
	
		<line display="inline" fill="none" stroke="#40826D" stroke-width="2" stroke-miterlimit="10" x1="9.501" y1="73.826" x2="36.308" y2="58.461"/>
	
		<line display="inline" fill="none" stroke="#40826D" stroke-width="2" stroke-miterlimit="10" x1="9.501" y1="7.16" x2="37.02" y2="58.461"/>
	
		<line display="inline" fill="none" stroke="#40826D" stroke-width="2" stroke-miterlimit="10" x1="10.468" y1="73.271" x2="37.02" y2="21.16"/>
	
		<line display="inline" fill="none" stroke="#40826D" stroke-width="2" stroke-miterlimit="10" x1="72.503" y1="7.16" x2="44.985" y2="21.16"/>
	
		<line display="inline" fill="none" stroke="#40826D" stroke-width="2" stroke-miterlimit="10" x1="72.503" y1="38.475" x2="44.985" y2="21.16"/>
	
		<line display="inline" fill="none" stroke="#40826D" stroke-width="2" stroke-miterlimit="10" x1="72.503" y1="38.475" x2="44.985" y2="58.461"/>
	
		<line display="inline" fill="none" stroke="#40826D" stroke-width="2" stroke-miterlimit="10" x1="72.503" y1="73.826" x2="45.697" y2="58.461"/>
	
		<line display="inline" fill="none" stroke="#40826D" stroke-width="2" stroke-miterlimit="10" x1="72.503" y1="7.16" x2="44.985" y2="58.461"/>
	
		<line display="inline" fill="none" stroke="#40826D" stroke-width="2" stroke-miterlimit="10" x1="71.537" y1="73.271" x2="44.985" y2="21.16"/>
</g>
<g id="Layer_3">
	<path fill="#40826D" d="M40.221,59.711c5.757,0,10.95-0.973,14.692-2.541c3.451-1.449,5.59-3.341,5.59-5.332
		c0-1.99-2.139-3.883-5.59-5.332c-3.742-1.57-8.937-2.541-14.692-2.541c-5.756,0-10.949,0.971-14.692,2.541
		c-3.452,1.448-5.589,3.342-5.589,5.332c0,1.991,2.137,3.883,5.589,5.332C29.271,58.738,34.464,59.711,40.221,59.711L40.221,59.711z
		 M46.505,31.378c1.748,1.082,3.328,2.644,4.596,4.683c1.289,2.072,2.259,4.644,2.753,7.71c0.53,0.176,1.041,0.363,1.53,0.56
		c0.652-1.004,1.382-1.886,2.169-2.647c0.702-0.681,1.456-1.266,2.243-1.752c-1.322-1.486-2.127-3.445-2.127-5.591
		c0-2.323,0.941-4.426,2.465-5.948s3.625-2.464,5.947-2.464s4.426,0.942,5.948,2.464c1.521,1.522,2.464,3.625,2.464,5.948
		c0,2.146-0.805,4.105-2.127,5.591c2.155,1.336,4.062,3.408,5.438,6.211c1.416,2.879,2.276,6.532,2.276,10.949v1.096h-22.25
		c-0.638,0.356-1.33,0.691-2.07,1.002c-3.994,1.677-9.49,2.713-15.54,2.713c-6.05,0-11.545-1.037-15.539-2.713
		c-0.742-0.311-1.434-0.646-2.071-1.002H0.358v-1.096c0-4.417,0.861-8.07,2.277-10.949c1.378-2.803,3.283-4.875,5.438-6.211
		c-1.322-1.486-2.126-3.445-2.126-5.591c0-2.323,0.942-4.426,2.456-5.948c1.53-1.522,3.634-2.464,5.957-2.464
		c2.322,0,4.426,0.942,5.948,2.464s2.464,3.625,2.464,5.948c0,2.146-0.804,4.105-2.127,5.591c0.788,0.488,1.54,1.072,2.244,1.752
		c0.787,0.76,1.517,1.644,2.169,2.647c0.489-0.196,1-0.384,1.529-0.56c0.495-3.066,1.465-5.639,2.754-7.71
		c1.268-2.039,2.848-3.601,4.594-4.683c-1.323-1.486-2.127-3.445-2.127-5.591c0-2.323,0.942-4.426,2.464-5.948
		s3.626-2.464,5.948-2.464s4.427,0.941,5.947,2.464c1.522,1.522,2.465,3.625,2.465,5.948C48.632,27.934,47.83,29.892,46.505,31.378
		L46.505,31.378z M51.505,43.089c-0.479-2.31-1.264-4.267-2.264-5.872c-1.234-1.988-2.795-3.432-4.498-4.335
		c-1.308,0.833-2.859,1.317-4.522,1.317c-1.664,0-3.215-0.483-4.521-1.317c-1.705,0.903-3.264,2.348-4.5,4.335
		c-0.998,1.605-1.784,3.563-2.264,5.872c3.307-0.836,7.167-1.315,11.285-1.315S48.201,42.253,51.505,43.089L51.505,43.089z
		 M44.619,21.389c-1.125-1.125-2.681-1.822-4.397-1.822c-1.717,0-3.272,0.696-4.398,1.822c-1.125,1.125-1.821,2.681-1.821,4.398
		c0,1.718,0.696,3.273,1.821,4.398c1.126,1.126,2.681,1.822,4.398,1.822c1.717,0,3.272-0.696,4.397-1.822
		c1.127-1.125,1.822-2.68,1.822-4.398C46.441,24.069,45.746,22.514,44.619,21.389L44.619,21.389z M23.047,45.252
		c-3.313,1.734-5.3,4.021-5.3,6.586c0,1.499,0.68,2.902,1.905,4.158H2.569c0.127-3.58,0.872-6.542,2.027-8.895
		c1.319-2.683,3.172-4.572,5.242-5.668c1.307,0.834,2.857,1.317,4.522,1.317c1.664,0,3.216-0.483,4.522-1.317
		c0.874,0.463,1.713,1.072,2.491,1.825C21.973,43.837,22.534,44.503,23.047,45.252L23.047,45.252z M18.759,29.94
		c-1.125-1.125-2.681-1.821-4.398-1.821c-1.717,0-3.273,0.696-4.398,1.821c-1.134,1.125-1.827,2.681-1.827,4.399
		c0,1.718,0.693,3.273,1.827,4.399c1.125,1.125,2.681,1.823,4.398,1.823c1.717,0,3.273-0.698,4.398-1.823s1.822-2.681,1.822-4.399
		C20.581,32.621,19.884,31.066,18.759,29.94L18.759,29.94z M60.791,55.996c1.226-1.254,1.903-2.659,1.903-4.158
		c0-2.564-1.985-4.852-5.299-6.585c0.513-0.75,1.073-1.415,1.673-1.994c0.778-0.753,1.617-1.362,2.491-1.825
		c1.308,0.834,2.856,1.317,4.522,1.317c1.664,0,3.215-0.483,4.521-1.317c2.069,1.096,3.922,2.984,5.241,5.668
		c1.156,2.353,1.9,5.314,2.027,8.895H60.791L60.791,55.996z M70.48,29.94c-1.125-1.125-2.682-1.821-4.398-1.821
		s-3.272,0.696-4.398,1.821c-1.125,1.125-1.821,2.681-1.821,4.399c0,1.718,0.696,3.273,1.821,4.399
		c1.126,1.125,2.682,1.823,4.398,1.823s3.273-0.698,4.398-1.823s1.82-2.681,1.82-4.399C72.302,32.621,71.605,31.066,70.48,29.94z"/>
</g>
<path fill="#FFFFFF" d="M60.758,56.004c1.226-1.254,1.903-2.659,1.903-4.158c0-2.564-1.985-4.852-5.299-6.585
	c0.513-0.75,1.073-1.415,1.673-1.994c0.778-0.753,1.617-1.362,2.491-1.825c1.308,0.834,2.856,1.317,4.522,1.317
	c1.664,0,3.215-0.483,4.521-1.317c2.069,1.096,3.922,2.984,5.241,5.668c1.156,2.353,1.9,5.314,2.027,8.895H60.758L60.758,56.004z"/>
<path fill="#FFFFFF" d="M19.683,56.004H2.603c0.127-3.58,0.871-6.542,2.027-8.895c1.319-2.684,3.172-4.572,5.241-5.668
	c1.306,0.834,2.856,1.317,4.521,1.317c1.666,0,3.215-0.483,4.522-1.317c0.874,0.463,1.713,1.072,2.491,1.825
	c0.6,0.579,1.16,1.244,1.673,1.994c-3.313,1.733-5.299,4.021-5.299,6.585C17.779,53.345,18.457,54.75,19.683,56.004L19.683,56.004z"
	/>
</svg>
