<?xml version="1.0" encoding="utf-8"?>
<!-- Generator: Adobe Illustrator 16.0.0, SVG Export Plug-In . SVG Version: 6.00 Build 0)  -->
<!DOCTYPE svg PUBLIC "-//W3C//DTD SVG 1.1//EN" "http://www.w3.org/Graphics/SVG/1.1/DTD/svg11.dtd">
<svg version="1.1" xmlns="http://www.w3.org/2000/svg" xmlns:xlink="http://www.w3.org/1999/xlink" x="0px" y="0px"
	 width="81.167px" height="79px" viewBox="0 0 81.167 79" enable-background="new 0 0 81.167 79" xml:space="preserve">
<g id="Layer_1">
</g>
<g id="Layer_2" display="none">
	<path display="inline" fill="none" stroke="#40826D" stroke-width="2" stroke-miterlimit="10" d="M9.501,5.326
		c0,2.186-1.763,3.958-3.934,3.958c-2.172,0-3.939-1.772-3.939-3.958s1.767-3.958,3.939-3.958C7.738,1.368,9.501,3.14,9.501,5.326z"
		/>
	<path display="inline" fill="none" stroke="#40826D" stroke-width="2" stroke-miterlimit="10" d="M9.501,38.475
		c0,2.186-1.763,3.958-3.934,3.958c-2.172,0-3.939-1.772-3.939-3.958s1.767-3.958,3.939-3.958
		C7.738,34.517,9.501,36.289,9.501,38.475z"/>
	<path display="inline" fill="none" stroke="#40826D" stroke-width="2" stroke-miterlimit="10" d="M9.501,73.826
		c0,2.186-1.763,3.958-3.934,3.958c-2.172,0-3.939-1.772-3.939-3.958s1.767-3.958,3.939-3.958
		C7.738,69.868,9.501,71.64,9.501,73.826z"/>
	
		<circle display="inline" fill="none" stroke="#40826D" stroke-width="2" stroke-miterlimit="10" cx="75.762" cy="5.326" r="3.958"/>
	
		<circle display="inline" fill="none" stroke="#40826D" stroke-width="2" stroke-miterlimit="10" cx="75.762" cy="38.475" r="3.958"/>
	
		<circle display="inline" fill="none" stroke="#40826D" stroke-width="2" stroke-miterlimit="10" cx="75.762" cy="73.826" r="3.958"/>
	
		<circle display="inline" fill="none" stroke="#40826D" stroke-width="2" stroke-miterlimit="10" cx="40.978" cy="23.109" r="3.958"/>
	
		<circle display="inline" fill="none" stroke="#40826D" stroke-width="2" stroke-miterlimit="10" cx="40.978" cy="58.461" r="3.958"/>
	
		<line display="inline" fill="none" stroke="#40826D" stroke-width="2" stroke-miterlimit="10" x1="9.501" y1="7.16" x2="37.02" y2="21.16"/>
	
		<line display="inline" fill="none" stroke="#40826D" stroke-width="2" stroke-miterlimit="10" x1="9.501" y1="38.475" x2="37.02" y2="21.16"/>
	
		<line display="inline" fill="none" stroke="#40826D" stroke-width="2" stroke-miterlimit="10" x1="9.501" y1="38.475" x2="37.02" y2="58.461"/>
	
		<line display="inline" fill="none" stroke="#40826D" stroke-width="2" stroke-miterlimit="10" x1="9.501" y1="73.826" x2="36.308" y2="58.461"/>
	
		<line display="inline" fill="none" stroke="#40826D" stroke-width="2" stroke-miterlimit="10" x1="9.501" y1="7.16" x2="37.02" y2="58.461"/>
	
		<line display="inline" fill="none" stroke="#40826D" stroke-width="2" stroke-miterlimit="10" x1="10.468" y1="73.272" x2="37.02" y2="21.16"/>
	
		<line display="inline" fill="none" stroke="#40826D" stroke-width="2" stroke-miterlimit="10" x1="72.504" y1="7.16" x2="44.985" y2="21.16"/>
	
		<line display="inline" fill="none" stroke="#40826D" stroke-width="2" stroke-miterlimit="10" x1="72.504" y1="38.475" x2="44.985" y2="21.16"/>
	
		<line display="inline" fill="none" stroke="#40826D" stroke-width="2" stroke-miterlimit="10" x1="72.504" y1="38.475" x2="44.985" y2="58.461"/>
	
		<line display="inline" fill="none" stroke="#40826D" stroke-width="2" stroke-miterlimit="10" x1="72.504" y1="73.826" x2="45.697" y2="58.461"/>
	
		<line display="inline" fill="none" stroke="#40826D" stroke-width="2" stroke-miterlimit="10" x1="72.504" y1="7.16" x2="44.985" y2="58.461"/>
	
		<line display="inline" fill="none" stroke="#40826D" stroke-width="2" stroke-miterlimit="10" x1="71.537" y1="73.272" x2="44.985" y2="21.16"/>
</g>
<g id="Layer_3" display="none">
	<path display="inline" fill-rule="evenodd" clip-rule="evenodd" fill="#40826D" d="M40.221,59.711
		c5.757,0,10.95-0.972,14.692-2.541c3.452-1.449,5.59-3.341,5.59-5.332c0-1.991-2.138-3.883-5.59-5.332
		c-3.742-1.57-8.936-2.541-14.692-2.541s-10.949,0.971-14.692,2.541c-3.452,1.448-5.589,3.341-5.589,5.332
		c0,1.991,2.137,3.883,5.589,5.332C29.271,58.739,34.464,59.711,40.221,59.711L40.221,59.711z M46.506,31.378
		c1.747,1.082,3.327,2.644,4.595,4.683c1.289,2.072,2.259,4.644,2.753,7.711c0.53,0.176,1.041,0.363,1.53,0.559
		c0.652-1.004,1.382-1.886,2.169-2.648c0.703-0.68,1.456-1.265,2.244-1.752c-1.323-1.486-2.128-3.445-2.128-5.591
		c0-2.323,0.942-4.426,2.465-5.948s3.626-2.464,5.948-2.464s4.426,0.942,5.948,2.464c1.521,1.522,2.464,3.625,2.464,5.948
		c0,2.146-0.805,4.105-2.127,5.591c2.155,1.337,4.061,3.408,5.438,6.211c1.416,2.88,2.277,6.533,2.277,10.95v1.096H57.832
		c-0.638,0.356-1.33,0.691-2.071,1.002c-3.994,1.676-9.49,2.712-15.54,2.712s-11.545-1.037-15.539-2.712
		c-0.742-0.311-1.434-0.646-2.071-1.002H0.358v-1.096c0-4.417,0.861-8.07,2.277-10.95c1.378-2.802,3.283-4.874,5.438-6.211
		c-1.322-1.486-2.126-3.445-2.126-5.591c0-2.323,0.942-4.426,2.456-5.948c1.53-1.522,3.634-2.464,5.957-2.464
		c2.322,0,4.426,0.942,5.948,2.464s2.464,3.625,2.464,5.948c0,2.146-0.804,4.105-2.127,5.591c0.788,0.488,1.54,1.072,2.244,1.752
		c0.787,0.761,1.517,1.644,2.169,2.648c0.489-0.196,1-0.383,1.529-0.559c0.495-3.067,1.465-5.639,2.754-7.711
		c1.268-2.039,2.848-3.601,4.594-4.683c-1.323-1.486-2.127-3.445-2.127-5.591c0-2.323,0.942-4.426,2.464-5.948
		c1.522-1.522,3.626-2.464,5.948-2.464c2.323,0,4.427,0.941,5.948,2.464c1.522,1.522,2.464,3.625,2.464,5.948
		C48.633,27.934,47.829,29.892,46.506,31.378L46.506,31.378z M51.506,43.089c-0.479-2.31-1.265-4.267-2.264-5.872
		c-1.235-1.988-2.795-3.432-4.499-4.335c-1.307,0.833-2.858,1.317-4.522,1.317s-3.215-0.483-4.521-1.317
		c-1.705,0.903-3.264,2.348-4.5,4.335c-0.998,1.605-1.784,3.563-2.264,5.872c3.307-0.836,7.167-1.316,11.285-1.316
		S48.2,42.253,51.506,43.089L51.506,43.089z M44.619,21.389c-1.125-1.125-2.681-1.822-4.398-1.822s-3.272,0.696-4.398,1.822
		c-1.125,1.125-1.821,2.681-1.821,4.398c0,1.718,0.696,3.273,1.821,4.398c1.126,1.126,2.681,1.822,4.398,1.822
		s3.273-0.696,4.398-1.822c1.126-1.125,1.822-2.68,1.822-4.398C46.441,24.069,45.745,22.514,44.619,21.389L44.619,21.389z
		 M23.047,45.252c-3.313,1.735-5.3,4.022-5.3,6.586c0,1.499,0.68,2.903,1.905,4.158H2.569c0.127-3.58,0.872-6.542,2.027-8.895
		c1.319-2.682,3.172-4.571,5.242-5.667c1.307,0.834,2.857,1.317,4.522,1.317c1.664,0,3.216-0.483,4.522-1.317
		c0.874,0.463,1.713,1.072,2.491,1.825C21.973,43.837,22.534,44.503,23.047,45.252L23.047,45.252z M18.759,29.94
		c-1.125-1.125-2.681-1.821-4.398-1.821s-3.273,0.696-4.398,1.821c-1.134,1.125-1.827,2.681-1.827,4.399
		c0,1.718,0.693,3.273,1.827,4.399c1.125,1.125,2.681,1.822,4.398,1.822s3.273-0.697,4.398-1.822
		c1.125-1.125,1.822-2.681,1.822-4.399C20.581,32.621,19.884,31.066,18.759,29.94L18.759,29.94z M60.79,55.996
		c1.226-1.254,1.904-2.659,1.904-4.158c0-2.564-1.986-4.851-5.299-6.585c0.513-0.75,1.073-1.415,1.673-1.994
		c0.778-0.753,1.617-1.362,2.491-1.825c1.307,0.834,2.857,1.317,4.522,1.317c1.664,0,3.216-0.483,4.521-1.317
		c2.069,1.096,3.922,2.984,5.241,5.667c1.156,2.353,1.901,5.315,2.027,8.895H60.79L60.79,55.996z M70.48,29.94
		c-1.125-1.125-2.681-1.821-4.398-1.821s-3.273,0.696-4.399,1.821c-1.125,1.125-1.821,2.681-1.821,4.399
		c0,1.718,0.696,3.273,1.821,4.399c1.126,1.125,2.682,1.822,4.399,1.822s3.273-0.697,4.398-1.822
		c1.125-1.125,1.821-2.681,1.821-4.399C72.302,32.621,71.605,31.066,70.48,29.94z"/>
</g>
<g id="Layer_4" display="none">
	<path display="inline" fill-rule="evenodd" clip-rule="evenodd" fill="#40826D" d="M40.674,1.077c2.564,0,4.886,1.04,6.566,2.72
		c1.681,1.681,2.721,4.002,2.721,6.566c0,2.339-0.865,4.478-2.294,6.109c2.344,1.473,4.413,3.736,5.914,6.789
		c1.555,3.164,2.502,7.176,2.502,12.026v1.272H25.267v-1.272c0-4.85,0.946-8.862,2.501-12.026c1.501-3.053,3.569-5.315,5.914-6.789
		c-1.429-1.632-2.294-3.77-2.294-6.109c0-2.564,1.041-4.886,2.72-6.566C35.789,2.116,38.11,1.077,40.674,1.077L40.674,1.077z
		 M70.91,57.378c2.343,1.472,4.412,3.736,5.913,6.788c1.556,3.165,2.502,7.176,2.502,12.026v1.271H48.509v-1.271
		c0-4.85,0.946-8.862,2.502-12.026c1.5-3.052,3.569-5.316,5.913-6.788c-1.428-1.633-2.294-3.77-2.294-6.11
		c0-2.564,1.04-4.885,2.721-6.566s4.002-2.72,6.566-2.72c2.563,0,4.886,1.039,6.566,2.72c1.68,1.681,2.719,4.002,2.719,6.566
		C73.202,53.608,72.337,55.745,70.91,57.378L70.91,57.378z M58.96,59.122c-2.239,1.196-4.244,3.248-5.674,6.156
		c-1.255,2.552-2.065,5.765-2.211,9.643h25.683c-0.145-3.878-0.956-7.09-2.209-9.642c-1.432-2.909-3.437-4.96-5.676-6.157
		c-1.434,0.907-3.134,1.433-4.956,1.433S60.394,60.029,58.96,59.122L58.96,59.122z M68.685,46.5c-1.22-1.22-2.905-1.975-4.768-1.975
		s-3.549,0.755-4.769,1.975s-1.975,2.906-1.975,4.768s0.755,3.548,1.975,4.769s2.906,1.975,4.769,1.975s3.548-0.754,4.768-1.975
		c1.221-1.22,1.975-2.906,1.975-4.769C70.659,49.406,69.905,47.72,68.685,46.5L68.685,46.5z M24.426,57.378
		c2.343,1.472,4.412,3.736,5.913,6.788c1.555,3.165,2.502,7.176,2.502,12.026v1.271H2.01v-1.271c0-4.85,0.947-8.862,2.502-12.026
		c1.5-3.052,3.57-5.316,5.923-6.788c-1.438-1.633-2.303-3.77-2.303-6.11c0-2.564,1.041-4.885,2.733-6.566
		c1.682-1.681,4.003-2.72,6.566-2.72c2.564,0,4.886,1.039,6.566,2.72s2.721,4.002,2.721,6.566
		C26.719,53.608,25.854,55.745,24.426,57.378L24.426,57.378z M12.476,59.122c-2.243,1.196-4.258,3.248-5.688,6.157
		c-1.255,2.552-2.065,5.764-2.21,9.642h25.697c-0.146-3.878-0.956-7.091-2.211-9.643c-1.43-2.908-3.435-4.96-5.674-6.156
		c-1.436,0.907-3.136,1.433-4.958,1.433S13.909,60.029,12.476,59.122L12.476,59.122z M22.2,46.5c-1.22-1.22-2.906-1.975-4.769-1.975
		c-1.861,0-3.549,0.755-4.768,1.975c-1.22,1.22-1.978,2.906-1.978,4.768s0.758,3.548,1.978,4.769
		c1.219,1.22,2.906,1.975,4.768,1.975c1.862,0,3.549-0.754,4.769-1.975s1.975-2.906,1.975-4.769
		C24.175,49.406,23.42,47.72,22.2,46.5L22.2,46.5z M41.946,40.81h-2.543v7.334l-8.035,8.035l1.798,1.799l7.508-7.508l7.509,7.508
		l1.798-1.799l-8.034-8.035V40.81L41.946,40.81z M45.631,18.217c-1.435,0.907-3.135,1.432-4.957,1.432s-3.522-0.525-4.956-1.433
		c-2.239,1.197-4.244,3.249-5.675,6.157c-1.254,2.552-2.064,5.764-2.21,9.642h25.683c-0.146-3.878-0.955-7.09-2.21-9.642
		C49.875,21.465,47.871,19.413,45.631,18.217L45.631,18.217z M45.442,5.595c-1.22-1.22-2.906-1.975-4.769-1.975
		c-1.861,0-3.548,0.755-4.768,1.975c-1.22,1.22-1.975,2.906-1.975,4.768s0.755,3.548,1.975,4.768c1.22,1.22,2.906,1.975,4.768,1.975
		c1.863,0,3.549-0.754,4.769-1.975c1.22-1.22,1.975-2.906,1.975-4.768C47.417,8.501,46.662,6.815,45.442,5.595z"/>
</g>
<g id="Layer_5">
	<path fill-rule="evenodd" clip-rule="evenodd" fill="#40826D" d="M47.587,5.991h20.017v71.071H13.635V5.991H33.65V1.342h13.937
		V5.991L47.587,5.991z M52.979,8.596v8.815H28.259V8.596H16.24v65.862h48.758V8.596H52.979L52.979,8.596z M30.863,8.596v6.21h19.511
		v-6.21h-5.392V3.947h-8.727v4.648H30.863L30.863,8.596z M24.062,28.557v2.606h33.115v-2.606H24.062L24.062,28.557z M24.062,38.708
		v2.605h33.115v-2.605H24.062L24.062,38.708z M24.062,48.859v2.605h33.115v-2.605H24.062L24.062,48.859z M24.062,59.009v2.605
		h33.115v-2.605H24.062z"/>
</g>
</svg>
