<?xml version="1.0" encoding="utf-8"?>
<!-- Generator: Adobe Illustrator 16.0.0, SVG Export Plug-In . SVG Version: 6.00 Build 0)  -->
<!DOCTYPE svg PUBLIC "-//W3C//DTD SVG 1.1//EN" "http://www.w3.org/Graphics/SVG/1.1/DTD/svg11.dtd">
<svg version="1.1" id="Layer_1" xmlns="http://www.w3.org/2000/svg" xmlns:xlink="http://www.w3.org/1999/xlink" x="0px" y="0px"
	 width="81.167px" height="81.621px" viewBox="0 0 81.167 81.621" enable-background="new 0 0 81.167 81.621" xml:space="preserve">
<g id="Layer_1_1_">
</g>
<g id="Layer_2" display="none">
	<path display="inline" fill="none" stroke="#40826D" stroke-width="2" stroke-miterlimit="10" d="M9.501,5.326
		c0,2.186-1.763,3.958-3.934,3.958c-2.172,0-3.939-1.772-3.939-3.958s1.767-3.958,3.939-3.958C7.738,1.368,9.501,3.14,9.501,5.326z"
		/>
	<path display="inline" fill="none" stroke="#40826D" stroke-width="2" stroke-miterlimit="10" d="M9.501,38.475
		c0,2.187-1.763,3.959-3.934,3.959c-2.172,0-3.939-1.772-3.939-3.959c0-2.186,1.767-3.957,3.939-3.957
		C7.738,34.518,9.501,36.289,9.501,38.475z"/>
	<path display="inline" fill="none" stroke="#40826D" stroke-width="2" stroke-miterlimit="10" d="M9.501,73.826
		c0,2.186-1.763,3.958-3.934,3.958c-2.172,0-3.939-1.772-3.939-3.958s1.767-3.958,3.939-3.958
		C7.738,69.868,9.501,71.641,9.501,73.826z"/>
	
		<circle display="inline" fill="none" stroke="#40826D" stroke-width="2" stroke-miterlimit="10" cx="75.762" cy="5.326" r="3.958"/>
	
		<circle display="inline" fill="none" stroke="#40826D" stroke-width="2" stroke-miterlimit="10" cx="75.762" cy="38.476" r="3.958"/>
	
		<circle display="inline" fill="none" stroke="#40826D" stroke-width="2" stroke-miterlimit="10" cx="75.762" cy="73.826" r="3.958"/>
	
		<circle display="inline" fill="none" stroke="#40826D" stroke-width="2" stroke-miterlimit="10" cx="40.978" cy="23.109" r="3.958"/>
	
		<circle display="inline" fill="none" stroke="#40826D" stroke-width="2" stroke-miterlimit="10" cx="40.978" cy="58.461" r="3.958"/>
	
		<line display="inline" fill="none" stroke="#40826D" stroke-width="2" stroke-miterlimit="10" x1="9.501" y1="7.16" x2="37.02" y2="21.16"/>
	
		<line display="inline" fill="none" stroke="#40826D" stroke-width="2" stroke-miterlimit="10" x1="9.501" y1="38.475" x2="37.02" y2="21.16"/>
	
		<line display="inline" fill="none" stroke="#40826D" stroke-width="2" stroke-miterlimit="10" x1="9.501" y1="38.475" x2="37.02" y2="58.461"/>
	
		<line display="inline" fill="none" stroke="#40826D" stroke-width="2" stroke-miterlimit="10" x1="9.501" y1="73.826" x2="36.308" y2="58.461"/>
	
		<line display="inline" fill="none" stroke="#40826D" stroke-width="2" stroke-miterlimit="10" x1="9.501" y1="7.16" x2="37.02" y2="58.461"/>
	
		<line display="inline" fill="none" stroke="#40826D" stroke-width="2" stroke-miterlimit="10" x1="10.468" y1="73.271" x2="37.02" y2="21.16"/>
	
		<line display="inline" fill="none" stroke="#40826D" stroke-width="2" stroke-miterlimit="10" x1="72.503" y1="7.16" x2="44.985" y2="21.16"/>
	
		<line display="inline" fill="none" stroke="#40826D" stroke-width="2" stroke-miterlimit="10" x1="72.503" y1="38.475" x2="44.985" y2="21.16"/>
	
		<line display="inline" fill="none" stroke="#40826D" stroke-width="2" stroke-miterlimit="10" x1="72.503" y1="38.475" x2="44.985" y2="58.461"/>
	
		<line display="inline" fill="none" stroke="#40826D" stroke-width="2" stroke-miterlimit="10" x1="72.503" y1="73.826" x2="45.697" y2="58.461"/>
	
		<line display="inline" fill="none" stroke="#40826D" stroke-width="2" stroke-miterlimit="10" x1="72.503" y1="7.16" x2="44.985" y2="58.461"/>
	
		<line display="inline" fill="none" stroke="#40826D" stroke-width="2" stroke-miterlimit="10" x1="71.537" y1="73.271" x2="44.985" y2="21.16"/>
</g>
<g id="Layer_5">
	<path fill="#40826D" d="M46.181,6.833h20.017v71.065H12.236V6.833h20.016V2.184h13.93V6.833L46.181,6.833z M51.573,9.438v8.815
		H26.861V9.438h-12.02v65.856h48.75V9.438H51.573L51.573,9.438z M29.464,9.438v6.211h19.504V9.438h-5.393V4.79h-8.719v4.647
		L29.464,9.438L29.464,9.438z M22.664,29.399v2.606h33.107v-2.606H22.664L22.664,29.399z M22.664,39.544v2.604h33.107v-2.604H22.664
		L22.664,39.544z M22.664,49.695V52.3h33.107v-2.604H22.664L22.664,49.695z M22.664,59.845v2.605h33.107v-2.605H22.664z"/>
</g>
<g>
	<path fill="#40826D" d="M1257.111-136.936c0,5.908-4.787,10.696-10.695,10.696h-77.025c-5.908,0-10.697-4.788-10.697-10.696
		v-66.403c0-5.909,4.789-10.697,10.697-10.697h77.025c5.908,0,10.695,4.788,10.695,10.697V-136.936z"/>
	<path fill="#40826D" d="M1246.392-236.816c-0.154-21.181-17.434-38.363-38.646-38.363c-21.299,0-38.631,17.318-38.648,38.613l0,0
		v25.231h8.557v-25.197l0,0c0-16.593,13.5-30.09,30.092-30.09s30.09,13.497,30.09,30.09v0.208h8.557V-236.816L1246.392-236.816z"/>
</g>
<circle fill="#FFFFFF" stroke="#40826D" stroke-width="2.2301" stroke-miterlimit="10" cx="60.27" cy="52.803" r="13.658"/>
<polyline fill="none" stroke="#40826D" stroke-width="2.2" stroke-miterlimit="10" points="53.176,52.99 58.096,57.91 
	68.064,47.941 "/>
<g>
	<path fill="#40826D" d="M1430.24-267.494h-20.902c-5.742,0-10.449,4.696-10.449,10.447v127.997c0,5.751,4.707,10.443,10.449,10.443
		h20.902c5.744,0,10.447-4.691,10.447-10.443v-127.997C1440.687-262.798,1435.984-267.494,1430.24-267.494z M1419.785-132.87
		c-5.75,0-10.412-4.662-10.412-10.415c0-5.75,4.662-10.413,10.412-10.413c5.752,0,10.414,4.662,10.414,10.413
		C1430.199-137.532,1425.537-132.87,1419.785-132.87z M1433.72-175.688h-27.861v-63.513h27.861V-175.688z"/>
	<path fill="#40826D" d="M1477.675-267.494h-20.9c-5.74,0-10.449,4.696-10.449,10.447v127.997c0,5.751,4.709,10.443,10.449,10.443
		h20.9c5.74,0,10.451-4.691,10.451-10.443v-127.997C1488.126-262.798,1483.416-267.494,1477.675-267.494z M1467.226-132.87
		c-5.752,0-10.412-4.662-10.412-10.415c0-5.75,4.66-10.413,10.412-10.413c5.75,0,10.41,4.662,10.41,10.413
		C1477.636-137.532,1472.976-132.87,1467.226-132.87z M1481.158-175.688h-27.861v-63.513h27.861V-175.688z"/>
	<path fill="#40826D" d="M1559.349-135.844l-27.738-124.955c-1.248-5.617-6.859-9.181-12.465-7.937l-20.402,4.534
		c-5.609,1.244-9.188,6.845-7.939,12.463l27.738,124.955c1.248,5.615,6.859,9.178,12.465,7.928l20.406-4.523
		C1557.019-124.626,1560.595-130.23,1559.349-135.844z M1515.24-173.825l-13.766-62.001l27.199-6.039l13.766,62.004L1515.24-173.825
		z M1538.119-135.043c-5.615,1.248-11.178-2.292-12.424-7.91c-1.244-5.612,2.295-11.174,7.908-12.421
		c5.613-1.246,11.178,2.294,12.422,7.908C1547.275-141.849,1543.73-136.288,1538.119-135.043z"/>
</g>
<rect x="1064.912" y="-89.226" fill="none" width="278.639" height="92.775"/>
<text transform="matrix(1 0 0 1 1093.8862 -61.9741)" fill="#40826D" font-family="'OpenSans-Bold'" font-size="35.8595">open-source </text>
<text transform="matrix(1 0 0 1 1131.6636 -18.9429)" fill="#40826D" font-family="'OpenSans-Bold'" font-size="35.8595">projects</text>
<rect x="786.273" y="-89.226" fill="none" width="278.639" height="92.775"/>
<text transform="matrix(1 0 0 1 846.4058 -61.9741)" fill="#40826D" font-family="'OpenSans-Bold'" font-size="35.8595">radiomic</text>
<text transform="matrix(1 0 0 1 844.6187 -18.9429)" fill="#40826D" font-family="'OpenSans-Bold'" font-size="35.8595">standard</text>
<rect x="1343.55" y="-89.226" fill="none" width="278.643" height="92.775"/>
<text transform="matrix(1 0 0 1 1404.5601 -61.9741)" fill="#40826D" font-family="'OpenSans-Bold'" font-size="35.8595">practical</text>
<text transform="matrix(1 0 0 1 1404.3862 -18.9429)" fill="#40826D" font-family="'OpenSans-Bold'" font-size="35.8595">resource</text>
<rect x="1622.193" y="-88.156" fill="none" width="278.641" height="92.774"/>
<text transform="matrix(1 0 0 1 1658.9585 -60.9019)" fill="#40826D" font-family="'OpenSans-Bold'" font-size="35.8595">communtiy</text>
<text transform="matrix(1 0 0 1 1680.2769 -17.8706)" fill="#40826D" font-family="'OpenSans-Bold'" font-size="35.8595">outreach</text>
<path fill="#40826D" d="M1810.892-153.656v20.771c-5.307,3.563-12.068,6.632-19.896,9.033v-24.91l-4.301,26.13
	c-10.734,2.818-23.174,4.432-36.439,4.432c-13.326,0-25.816-1.627-36.58-4.471l-4.293-26.091v24.866
	c-8.578-2.645-15.873-6.089-21.354-10.109v-19.65c0-20.792,7.113-40.001,46.313-43.949c4.758,2.433,10.141,3.813,15.852,3.813
	c5.727,0,11.129-1.391,15.896-3.84C1805.837-193.749,1810.892-174.5,1810.892-153.656z M1750.191-266.953
	c-18.004,0-32.602,14.595-32.602,32.599c0,18.003,14.598,32.596,32.602,32.596s32.594-14.593,32.594-32.596
	C1782.783-252.357,1768.195-266.953,1750.191-266.953z M1787.21-247.095c3.959-3.92,9.402-6.345,15.414-6.345
	c12.104,0,21.908,9.81,21.908,21.911c0,12.101-9.807,21.909-21.908,21.909c-6.865,0-12.984-3.16-17.002-8.1
	c2.381-5.053,3.729-10.687,3.729-16.634C1789.351-238.814,1788.589-243.098,1787.21-247.095z M1813.312-206.846
	c-3.205,1.646-6.836,2.581-10.686,2.581c-3.84,0-7.457-0.928-10.654-2.564c-6.736,0.679-12.057,2.031-16.252,3.897
	c36.027,6.428,41.59,27.775,41.73,48.431c3.406-0.49,6.666-1.136,9.711-1.936l2.893-17.562v16.743
	c5.26-1.615,9.809-3.678,13.373-6.072v-13.961C1843.425-191.297,1840.031-204.237,1813.312-206.846z M1675.974-231.528
	c0-12.102,9.807-21.911,21.904-21.911c5.965,0,11.363,2.389,15.314,6.252c-1.4,4.023-2.17,8.339-2.17,12.833
	c0,5.99,1.365,11.661,3.779,16.744c-4.02,4.879-10.107,7.991-16.924,7.991C1685.781-209.619,1675.974-219.428,1675.974-231.528z
	 M1724.859-202.898c-4.207-1.883-9.549-3.247-16.322-3.93c-3.199,1.636-6.818,2.564-10.656,2.564c-3.848,0-7.479-0.936-10.686-2.581
	c-26.717,2.608-30.113,15.548-30.113,29.557v13.96c3.564,2.395,8.111,4.458,13.373,6.072v-16.742l2.891,17.562
	c2.57,0.675,5.291,1.242,8.125,1.699C1681.662-172.72,1686.958-196.055,1724.859-202.898z"/>
<g>
	<g>
		<path fill="#FFFFFF" d="M1240.595-164.531c-0.756,0-1.514-0.295-2.082-0.884l-13.439-13.95c-1.107-1.15-1.074-2.98,0.076-4.089
			c1.148-1.107,2.979-1.074,4.088,0.076l13.439,13.95c1.107,1.15,1.074,2.98-0.072,4.088
			C1242.041-164.8,1241.32-164.531,1240.595-164.531z"/>
	</g>
	<g>
		<path fill="#FFFFFF" d="M1227.156-150.581c-0.723,0-1.445-0.269-2.006-0.81c-1.15-1.108-1.186-2.938-0.076-4.088l13.441-13.949
			c1.107-1.15,2.938-1.184,4.09-0.076c1.146,1.107,1.182,2.938,0.072,4.088l-13.439,13.949
			C1228.669-150.877,1227.912-150.581,1227.156-150.581z"/>
	</g>
	<g>
		<path fill="#FFFFFF" d="M1174.892-164.531c-0.738,0-1.477-0.28-2.039-0.841c-1.133-1.125-1.137-2.957-0.01-4.089l13.881-13.949
			c1.125-1.132,2.955-1.137,4.088-0.01c1.131,1.126,1.137,2.957,0.01,4.088l-13.881,13.95
			C1176.376-164.815,1175.632-164.531,1174.892-164.531z"/>
	</g>
	<g>
		<path fill="#FFFFFF" d="M1188.773-150.581c-0.742,0-1.486-0.284-2.049-0.852l-13.881-13.95c-1.127-1.131-1.123-2.963,0.01-4.089
			c1.131-1.127,2.963-1.122,4.088,0.01l13.881,13.95c1.127,1.132,1.121,2.962-0.01,4.088
			C1190.25-150.862,1189.509-150.581,1188.773-150.581z"/>
	</g>
	<g>
		<path fill="#FFFFFF" d="M1199.257-141.09c-0.297,0-0.598-0.046-0.895-0.142c-1.521-0.495-2.352-2.126-1.855-3.644l15.932-48.962
			c0.496-1.519,2.127-2.349,3.645-1.855c1.52,0.494,2.35,2.126,1.855,3.645l-15.934,48.961
			C1201.609-141.865,1200.476-141.09,1199.257-141.09z"/>
	</g>
</g>
</svg>
