<?xml version="1.0" encoding="utf-8"?>
<!-- Generator: Adobe Illustrator 16.0.0, SVG Export Plug-In . SVG Version: 6.00 Build 0)  -->
<!DOCTYPE svg PUBLIC "-//W3C//DTD SVG 1.1//EN" "http://www.w3.org/Graphics/SVG/1.1/DTD/svg11.dtd">
<svg version="1.1" xmlns="http://www.w3.org/2000/svg" xmlns:xlink="http://www.w3.org/1999/xlink" x="0px" y="0px"
	 width="81.167px" height="79px" viewBox="0 0 81.167 79" enable-background="new 0 0 81.167 79" xml:space="preserve">
<g id="Layer_1">
</g>
<g id="Layer_2">
	<path fill="none" stroke="#40826D" stroke-width="2.5" stroke-miterlimit="10" d="M9.501,5.326c0,2.186-1.763,3.958-3.934,3.958
		c-2.172,0-3.939-1.772-3.939-3.958s1.767-3.958,3.939-3.958C7.738,1.368,9.501,3.14,9.501,5.326z"/>
	<path fill="none" stroke="#40826D" stroke-width="2.5" stroke-miterlimit="10" d="M9.501,38.475c0,2.186-1.763,3.958-3.934,3.958
		c-2.172,0-3.939-1.772-3.939-3.958s1.767-3.958,3.939-3.958C7.738,34.517,9.501,36.289,9.501,38.475z"/>
	<path fill="none" stroke="#40826D" stroke-width="2.5" stroke-miterlimit="10" d="M9.501,73.826c0,2.186-1.763,3.958-3.934,3.958
		c-2.172,0-3.939-1.772-3.939-3.958s1.767-3.958,3.939-3.958C7.738,69.868,9.501,71.64,9.501,73.826z"/>
	<circle fill="none" stroke="#40826D" stroke-width="2.5" stroke-miterlimit="10" cx="75.762" cy="5.326" r="3.958"/>
	<circle fill="none" stroke="#40826D" stroke-width="2.5" stroke-miterlimit="10" cx="75.762" cy="38.475" r="3.958"/>
	<circle fill="none" stroke="#40826D" stroke-width="2.5" stroke-miterlimit="10" cx="75.762" cy="73.826" r="3.958"/>
	<circle fill="none" stroke="#40826D" stroke-width="2.5" stroke-miterlimit="10" cx="40.978" cy="23.109" r="3.958"/>
	<circle fill="none" stroke="#40826D" stroke-width="2.5" stroke-miterlimit="10" cx="40.978" cy="58.461" r="3.958"/>
	<line fill="none" stroke="#40826D" stroke-width="2.5" stroke-miterlimit="10" x1="9.501" y1="7.16" x2="37.02" y2="21.16"/>
	<line fill="none" stroke="#40826D" stroke-width="2.5" stroke-miterlimit="10" x1="9.501" y1="38.475" x2="37.02" y2="21.16"/>
	<line fill="none" stroke="#40826D" stroke-width="2.5" stroke-miterlimit="10" x1="9.501" y1="38.475" x2="37.02" y2="58.461"/>
	<line fill="none" stroke="#40826D" stroke-width="2.5" stroke-miterlimit="10" x1="9.501" y1="73.826" x2="36.308" y2="58.461"/>
	<line fill="none" stroke="#40826D" stroke-width="2.5" stroke-miterlimit="10" x1="9.501" y1="7.16" x2="37.02" y2="58.461"/>
	<line fill="none" stroke="#40826D" stroke-width="2.5" stroke-miterlimit="10" x1="10.468" y1="73.272" x2="37.02" y2="21.16"/>
	<line fill="none" stroke="#40826D" stroke-width="2.5" stroke-miterlimit="10" x1="72.504" y1="7.16" x2="44.985" y2="21.16"/>
	<line fill="none" stroke="#40826D" stroke-width="2.5" stroke-miterlimit="10" x1="72.504" y1="38.475" x2="44.985" y2="21.16"/>
	<line fill="none" stroke="#40826D" stroke-width="2.5" stroke-miterlimit="10" x1="72.504" y1="38.475" x2="44.985" y2="58.461"/>
	<line fill="none" stroke="#40826D" stroke-width="2.5" stroke-miterlimit="10" x1="72.504" y1="73.826" x2="45.697" y2="58.461"/>
	<line fill="none" stroke="#40826D" stroke-width="2.5" stroke-miterlimit="10" x1="72.504" y1="7.16" x2="44.985" y2="58.461"/>
	<line fill="none" stroke="#40826D" stroke-width="2.5" stroke-miterlimit="10" x1="71.537" y1="73.272" x2="44.985" y2="21.16"/>
</g>
</svg>
